<svg width="56" height="57" viewBox="0 0 56 57" fill="none" xmlns="http://www.w3.org/2000/svg">
<g clip-path="url(#clip0_1_643)">
<path d="M46.6666 37.7894C46.5225 37.9344 46.3512 38.0494 46.1624 38.1279C45.9737 38.2064 45.7713 38.2468 45.5669 38.2468C45.3624 38.2468 45.16 38.2064 44.9713 38.1279C44.7826 38.0494 44.6112 37.9344 44.4671 37.7894L42.2675 35.5899C42.1226 35.4457 42.0075 35.2744 41.929 35.0856C41.8505 34.8969 41.8101 34.6945 41.8101 34.4901C41.8101 34.2857 41.8505 34.0833 41.929 33.8945C42.0075 33.7058 42.1226 33.5344 42.2675 33.3903L46.6666 28.9912C46.811 28.8466 46.9824 28.7319 47.1711 28.6537C47.3598 28.5754 47.5621 28.5351 47.7664 28.5351C47.9707 28.5351 48.173 28.5754 48.3617 28.6537C48.5504 28.7319 48.7219 28.8466 48.8662 28.9912L51.0657 31.1908C51.2107 31.3349 51.3257 31.5062 51.4042 31.695C51.4827 31.8837 51.5231 32.0861 51.5231 32.2905C51.5231 32.495 51.4827 32.6973 51.4042 32.8861C51.3257 33.0748 51.2107 33.2462 51.0657 33.3903L46.6666 37.7894ZM23.3333 14.4561C23.1892 14.6011 23.0178 14.7161 22.8291 14.7946C22.6403 14.8731 22.4379 14.9135 22.2335 14.9135C22.0291 14.9135 21.8267 14.8731 21.638 14.7946C21.4492 14.7161 21.2779 14.6011 21.1338 14.4561L18.9342 12.2565C18.7892 12.1124 18.6742 11.9411 18.5957 11.7523C18.5172 11.5636 18.4768 11.3612 18.4768 11.1568C18.4768 10.9523 18.5172 10.75 18.5957 10.5612C18.6742 10.3725 18.7892 10.2011 18.9342 10.057L23.3333 5.65787C23.4776 5.51329 23.6491 5.39859 23.8378 5.32033C24.0265 5.24207 24.2288 5.20178 24.4331 5.20178C24.6374 5.20178 24.8397 5.24207 25.0284 5.32033C25.2171 5.39859 25.3885 5.51329 25.5329 5.65787L27.7324 7.85743C27.8774 8.00156 27.9924 8.17292 28.0709 8.36166C28.1494 8.5504 28.1898 8.75279 28.1898 8.95721C28.1898 9.16162 28.1494 9.36401 28.0709 9.55276C27.9924 9.7415 27.8774 9.91286 27.7324 10.057L23.3333 14.4561Z" fill="#66757F"/>
<path d="M3.11114 34.9459C6.22225 34.9459 20.2223 36.5014 20.2223 36.5014C20.2223 36.5014 21.7778 50.5014 21.7778 53.6125C21.7778 56.7236 18.6667 56.7236 17.1111 55.1681C15.5556 53.6125 10.8889 45.8347 10.8889 45.8347C10.8889 45.8347 3.11114 41.1681 1.55559 39.6125C3.12924e-05 38.057 3.12924e-05 34.9459 3.11114 34.9459ZM6.22225 10.1176C10.8889 10.057 45.1111 11.6125 45.1111 11.6125C45.1111 11.6125 46.5485 45.8347 46.6076 50.5014C46.6667 55.1681 42.3096 56.7267 40.6 50.503C38.8905 44.2792 32.6667 24.057 32.6667 24.057C32.6667 24.057 10.9589 17.1861 6.21448 16.1205C3.1054e-05 14.7236 1.55403 10.1767 6.22225 10.1176Z" fill="#55ACEE"/>
<path d="M42 5.39031C45.1111 2.2792 52.8889 0.723642 54.4445 2.2792C56 3.83475 54.4445 11.6125 51.3334 14.7236C48.2223 17.8348 21.7778 42.7236 21.7778 42.7236C21.7778 42.7236 11.6667 49.7236 9.33337 47.3903C7.00004 45.057 14 34.9459 14 34.9459C14 34.9459 38.8889 8.50142 42 5.39031Z" fill="#CCD6DD"/>
<path d="M21.7778 34.9459C21.7778 34.9459 22.5556 35.7237 15.5556 42.7237C8.55556 49.7237 7.77779 48.9459 7.77779 48.9459C7.77779 48.9459 7.00001 48.1681 14 41.1681C21 34.1681 21.7778 34.9459 21.7778 34.9459ZM45.1111 6.94588C46.3488 6.94588 47.5358 7.43754 48.411 8.31271C49.2861 9.18788 49.7778 10.3749 49.7778 11.6125H51.03C51.2073 11.1225 51.3333 10.6092 51.3333 10.057C51.3333 8.81931 50.8417 7.63232 49.9665 6.75716C49.0913 5.88199 47.9044 5.39032 46.6667 5.39032C46.1145 5.39032 45.6011 5.51632 45.1111 5.69365V6.94588Z" fill="#66757F"/>
</g>
<defs>
<clipPath id="clip0_1_643">
<rect width="56" height="56" fill="white" transform="translate(0 0.723633)"/>
</clipPath>
</defs>
</svg>
