<svg width="131" height="26" viewBox="0 0 131 26" fill="none" xmlns="http://www.w3.org/2000/svg">
<g clip-path="url(#clip0_1_764)">
<path fill-rule="evenodd" clip-rule="evenodd" d="M51.4333 19.62C46.6176 23.174 39.6357 25.064 33.6233 25.064C25.1974 25.064 17.6095 21.9492 11.8672 16.7643C11.4169 16.3568 11.8185 15.8009 12.3604 16.1161C18.5552 19.7211 26.217 21.8924 34.129 21.8924C39.4667 21.8924 45.3344 20.7842 50.7334 18.4941C51.5477 18.1493 52.2306 19.0308 51.4333 19.62Z" fill="#F79C34"/>
<path fill-rule="evenodd" clip-rule="evenodd" d="M53.4376 17.3313C52.8212 16.5428 49.3661 16.9578 47.8135 17.1438C47.3432 17.2006 47.2701 16.7894 47.6939 16.4919C50.4506 14.5554 54.9681 15.1143 55.493 15.7632C56.0216 16.4166 55.3534 20.9459 52.771 23.1068C52.373 23.439 51.9951 23.2618 52.1715 22.8233C52.7533 21.3711 54.0541 18.1213 53.4376 17.3313Z" fill="#F79C34"/>
<path fill-rule="evenodd" clip-rule="evenodd" d="M47.9228 2.81323V0.932122C47.9242 0.645674 48.1398 0.4552 48.3997 0.455938L56.8322 0.4552C57.1016 0.4552 57.3187 0.650841 57.3187 0.929907V2.54302C57.3157 2.81397 57.0876 3.16686 56.6838 3.72721L52.3155 9.9641C53.9367 9.92645 55.6517 10.1693 57.1253 10.9969C57.4575 11.1837 57.5468 11.4606 57.5727 11.7315V13.7389C57.5727 14.0157 57.27 14.3354 56.951 14.1693C54.356 12.8094 50.912 12.661 48.0416 14.1855C47.7485 14.342 47.4421 14.0261 47.4421 13.7492V11.8408C47.4421 11.5359 47.448 11.0132 47.7559 10.5481L52.816 3.28794L48.41 3.2872C48.1405 3.2872 47.9242 3.09525 47.9228 2.81323Z" fill="#333E47"/>
<path fill-rule="evenodd" clip-rule="evenodd" d="M17.1636 14.5644H14.5981C14.3538 14.5488 14.1588 14.3658 14.1389 14.131L14.1411 0.96396C14.1411 0.701136 14.3626 0.49073 14.6365 0.49073L17.0255 0.489991C17.2751 0.502542 17.4759 0.691539 17.4914 0.932215V2.6509H17.5401C18.1625 0.988323 19.3356 0.212402 20.9162 0.212402C22.5205 0.212402 23.5267 0.988323 24.2451 2.6509C24.8674 0.988323 26.2805 0.212402 27.7888 0.212402C28.8666 0.212402 30.0398 0.656102 30.7581 1.6535C31.5724 2.76238 31.4055 4.36886 31.4055 5.7819L31.4026 14.0911C31.4026 14.3532 31.1819 14.5644 30.908 14.5644H28.3462C28.0878 14.5481 27.8855 14.3443 27.8855 14.0919L27.8847 7.11153C27.8847 6.55782 27.9327 5.17283 27.8124 4.64645C27.6212 3.75905 27.0468 3.50951 26.3049 3.50951C25.6818 3.50951 25.035 3.92516 24.7715 4.5896C24.5079 5.25552 24.5323 6.36292 24.5323 7.11153V14.0911C24.5323 14.3532 24.3108 14.5644 24.0376 14.5644H21.4751C21.2174 14.5481 21.0144 14.3443 21.0144 14.0919L21.0115 7.11153C21.0115 5.64311 21.2514 3.48293 19.4316 3.48293C17.5874 3.48293 17.6597 5.58774 17.6597 7.11153L17.6582 14.0911C17.6582 14.3532 17.4368 14.5644 17.1636 14.5644Z" fill="#333E47"/>
<path fill-rule="evenodd" clip-rule="evenodd" d="M64.6011 2.90044C62.7096 2.90044 62.59 5.47626 62.59 7.08347C62.59 8.69068 62.5664 12.1266 64.5782 12.1266C66.5656 12.1266 66.6616 9.35586 66.6616 7.66597C66.6616 6.55782 66.6129 5.22746 66.2777 4.17469C65.9905 3.25998 65.4154 2.90044 64.6011 2.90044ZM64.5782 0.212402C68.3854 0.212402 70.4445 3.48293 70.4445 7.63865C70.4445 11.6548 68.1699 14.8419 64.5782 14.8419C60.8418 14.8419 58.8064 11.5721 58.8064 7.49985C58.8064 3.39877 60.8654 0.212402 64.5782 0.212402Z" fill="#333E47"/>
<path fill-rule="evenodd" clip-rule="evenodd" d="M75.3827 14.5644H72.8261C72.5699 14.5481 72.3661 14.3443 72.3661 14.0919L72.3617 0.920402C72.3838 0.678988 72.5965 0.49073 72.8549 0.49073L75.2343 0.489991C75.4587 0.501804 75.6433 0.653887 75.6906 0.858388V2.87239H75.7385C76.4576 1.07101 77.4624 0.212402 79.2342 0.212402C80.3837 0.212402 81.5096 0.628048 82.2279 1.76424C82.8983 2.81702 82.8983 4.5896 82.8983 5.86459V14.1502C82.8702 14.3835 82.6605 14.5644 82.4066 14.5644H79.8352C79.5975 14.5496 79.4063 14.3746 79.3782 14.1502V7.00152C79.3782 5.56042 79.5465 3.45414 77.7739 3.45414C77.1516 3.45414 76.5765 3.86979 76.2893 4.50691C75.9297 5.31089 75.8818 6.11412 75.8818 7.00152V14.0911C75.8773 14.3532 75.6559 14.5644 75.3827 14.5644Z" fill="#333E47"/>
<path fill-rule="evenodd" clip-rule="evenodd" d="M43.7863 14.5318C43.6172 14.6839 43.3729 14.6942 43.1809 14.5916C42.3289 13.8836 42.1761 13.5565 41.7103 12.8817C40.3024 14.3162 39.305 14.7466 37.4807 14.7466C35.3213 14.7466 33.641 13.4133 33.641 10.7481C33.641 8.66548 34.7698 7.24948 36.377 6.55551C37.7687 5.94422 39.7125 5.83348 41.2009 5.66663V5.33367C41.2009 4.72165 41.2489 4.0011 40.8886 3.47324C40.5763 3.00075 39.9768 2.80658 39.449 2.80658C38.47 2.80658 37.6011 3.30787 37.387 4.34661C37.3419 4.57769 37.1736 4.80729 36.9418 4.8191L34.4546 4.54963C34.2449 4.50165 34.0116 4.33332 34.0714 4.01291C34.6362 1.03843 37.2925 0.111161 39.7066 0.0860596H39.8971C41.1329 0.101563 42.7114 0.440429 43.6726 1.36253C44.921 2.52899 44.7999 4.08379 44.7999 5.77811V9.77436C44.7999 10.977 45.2997 11.5041 45.7685 12.1516C45.9332 12.3856 45.9693 12.6625 45.7604 12.8337C45.2362 13.273 44.3053 14.0814 43.7937 14.5377L43.7863 14.5318ZM41.2009 8.27715C41.2009 9.27677 41.2245 10.1095 40.721 10.9984C40.3127 11.7197 39.6645 12.1641 38.9447 12.1641C37.9613 12.1641 37.3855 11.4148 37.3855 10.3037C37.3855 8.11843 39.3449 7.72124 41.2009 7.72124V8.27715Z" fill="#333E47"/>
<path fill-rule="evenodd" clip-rule="evenodd" d="M10.1574 14.5318C9.98758 14.6839 9.74247 14.6942 9.55126 14.5916C8.69856 13.8836 8.54574 13.5565 8.08063 12.8817C6.67201 14.3162 5.67535 14.7466 3.85109 14.7466C1.69165 14.7466 0.0113525 13.4133 0.0113525 10.7481C0.0113525 8.66548 1.13869 7.24948 2.74738 6.55551C4.13901 5.94422 6.08288 5.83348 7.57049 5.66663V5.33367C7.57049 4.72165 7.61921 4.0011 7.25894 3.47324C6.94665 3.00075 6.34644 2.80658 5.81931 2.80658C4.84037 2.80658 3.96995 3.30787 3.75733 4.34661C3.71303 4.57769 3.54397 4.80729 3.31141 4.8191L0.824925 4.54963C0.614518 4.50165 0.381225 4.33332 0.441763 4.01291C1.00506 1.03843 3.66209 0.111161 6.07697 0.0860596H6.26744C7.50331 0.101563 9.08172 0.440429 10.043 1.36253C11.2906 2.52899 11.1703 4.08379 11.1703 5.77811V9.77436C11.1703 10.977 11.6701 11.5041 12.1389 12.1516C12.3021 12.3856 12.3397 12.6625 12.1308 12.8337C11.6066 13.273 10.6749 14.0814 10.1633 14.5377L10.1574 14.5318ZM7.57049 8.27715C7.57049 9.27677 7.59485 10.1095 7.09061 10.9984C6.68309 11.7197 6.03489 12.1641 5.31434 12.1641C4.33096 12.1641 3.75511 11.4148 3.75511 10.3037C3.75511 8.11843 5.71522 7.72124 7.57049 7.72124V8.27715Z" fill="#333E47"/>
<path fill-rule="evenodd" clip-rule="evenodd" d="M117.967 19.2878C117.967 18.9541 117.967 18.6543 117.967 18.3206C117.967 18.0452 118.102 17.8555 118.389 17.8725C118.925 17.9485 119.683 18.0246 120.221 17.9138C120.924 17.7677 121.428 17.2693 121.727 16.5864C122.147 15.6252 122.425 14.85 122.601 14.3414L117.264 1.12043C117.174 0.895998 117.147 0.479614 117.595 0.479614H119.461C119.817 0.479614 119.962 0.705525 120.041 0.927005L123.911 11.6659L127.604 0.927005C127.679 0.707001 127.831 0.479614 128.184 0.479614H129.943C130.388 0.479614 130.363 0.89526 130.274 1.12043L124.98 14.754C124.295 16.5687 123.383 19.459 121.327 19.9611C120.297 20.2305 118.997 20.1331 118.233 19.8134C118.041 19.7167 117.967 19.4583 117.967 19.2878Z" fill="#333E47"/>
<path fill-rule="evenodd" clip-rule="evenodd" d="M115.478 13.7589C115.478 14.0047 115.277 14.2062 115.029 14.2062H113.714C113.429 14.2062 113.235 14.001 113.199 13.7589L113.067 12.8633C112.462 13.375 111.72 13.8246 110.916 14.1376C109.368 14.7385 107.585 14.8382 106.073 13.9095C104.979 13.2384 104.399 11.9265 104.399 10.5732C104.399 9.52636 104.722 8.48835 105.437 7.73458C106.392 6.70469 107.775 6.19898 109.446 6.19898C110.455 6.19898 111.899 6.31784 112.95 6.66114V4.85902C112.95 3.02664 112.178 2.23374 110.144 2.23374C108.589 2.23374 107.4 2.46851 105.745 2.98308C105.48 2.99194 105.325 2.79039 105.325 2.54455V1.51688C105.325 1.2703 105.535 1.03184 105.763 0.959485C106.945 0.444173 108.62 0.123026 110.4 0.0639648C112.72 0.0639648 115.478 0.587398 115.478 4.15619V13.7589ZM112.95 11.1277V8.40862C112.067 8.1672 110.606 8.0668 110.04 8.0668C109.147 8.0668 108.169 8.27794 107.658 8.82796C107.276 9.23105 107.103 9.80985 107.103 10.3695C107.103 11.093 107.353 11.8187 107.938 12.1775C108.617 12.6389 109.671 12.5828 110.661 12.3015C111.613 12.0313 112.506 11.5536 112.95 11.1277Z" fill="#333E47"/>
<path fill-rule="evenodd" clip-rule="evenodd" d="M96.0801 2.2744C98.9992 2.2744 99.7943 4.56968 99.7943 7.19792C99.8106 8.96976 99.485 10.5497 98.5673 11.454C97.8807 12.131 97.1137 12.3156 95.959 12.3156C94.9314 12.3156 93.5796 11.7796 92.5696 11.0332V3.51838C93.6209 2.71072 94.9624 2.2744 96.0801 2.2744ZM92.1222 19.7596H90.36C90.1134 19.7596 89.9119 19.558 89.9119 19.3122C89.9119 13.1919 89.9119 7.07093 89.9119 0.950684C89.9119 0.70484 90.1134 0.503293 90.36 0.503293H91.7088C91.9923 0.503293 92.1865 0.708531 92.2226 0.950684L92.3644 1.91265C93.6276 0.791218 95.254 0.0721436 96.8036 0.0721436C101.144 0.0721436 102.571 3.64832 102.571 7.36698C102.571 11.3455 100.388 14.5422 96.6958 14.5422C95.141 14.5422 93.6874 13.9686 92.5696 12.9719V19.3122C92.5696 19.558 92.3681 19.7596 92.1222 19.7596Z" fill="#333E47"/>
</g>
<defs>
<clipPath id="clip0_1_764">
<rect width="130.316" height="25" fill="white" transform="translate(0.0113525 0.0639648)"/>
</clipPath>
</defs>
</svg>
