<svg width="62" height="26" viewBox="0 0 62 26" fill="none" xmlns="http://www.w3.org/2000/svg">
<g clip-path="url(#clip0_1_761)">
<path d="M11.2492 3.28709C10.5356 4.13152 9.39381 4.79755 8.25204 4.7024C8.10931 3.56063 8.66831 2.3475 9.32244 1.59822C10.0361 0.729997 11.2849 0.111539 12.2958 0.0639648C12.4147 1.25331 11.9509 2.41886 11.2492 3.28709ZM12.2839 4.92838C10.6307 4.83323 9.2154 5.86796 8.43044 5.86796C7.63358 5.86796 6.43234 4.97595 5.12406 4.99974C3.4233 5.02353 1.84147 5.9869 0.973253 7.52115C-0.810763 10.5897 0.509409 15.1329 2.23396 17.6306C3.07839 18.8675 4.08933 20.2233 5.4214 20.1758C6.6821 20.1282 7.18163 19.3551 8.70399 19.3551C10.2382 19.3551 10.6783 20.1758 12.0104 20.152C13.39 20.1282 14.2582 18.9151 15.1027 17.6781C16.066 16.2747 16.4585 14.907 16.4823 14.8356C16.4585 14.8118 13.8182 13.8009 13.7944 10.7562C13.7706 8.21097 15.8757 6.99784 15.9709 6.92648C14.7815 5.16625 12.9262 4.97595 12.2839 4.92838ZM21.8343 1.47928V20.0211H24.7126V13.6819H28.6969C32.3362 13.6819 34.8933 11.1843 34.8933 7.56872C34.8933 3.95312 32.3838 1.47928 28.792 1.47928H21.8343ZM24.7126 3.90554H28.0308C30.5284 3.90554 31.9557 5.23761 31.9557 7.58062C31.9557 9.92362 30.5284 11.2676 28.0189 11.2676H24.7126V3.90554ZM40.1502 20.1639C41.958 20.1639 43.635 19.2481 44.3962 17.7971H44.4557V20.0211H47.1198V10.7918C47.1198 8.11582 44.979 6.39127 41.6845 6.39127C38.6279 6.39127 36.3681 8.13961 36.2849 10.5421H38.8776C39.0917 9.40031 40.1502 8.65102 41.6012 8.65102C43.3615 8.65102 44.3486 9.47167 44.3486 10.9821V12.005L40.7568 12.2191C37.4147 12.4212 35.6069 13.789 35.6069 16.1677C35.6069 18.5701 37.4742 20.1639 40.1502 20.1639ZM40.9233 17.9636C39.389 17.9636 38.4138 17.2262 38.4138 16.0963C38.4138 14.9308 39.3534 14.2528 41.1493 14.1458L44.3486 13.9436V14.9902C44.3486 16.7267 42.8738 17.9636 40.9233 17.9636ZM50.6759 25.064C53.4828 25.064 54.8029 23.9936 55.9566 20.7466L61.0113 6.56967H58.0855L54.6959 17.5235H54.6364L51.2468 6.56967H48.2378L53.1141 20.0687L52.8524 20.8894C52.4124 22.2809 51.6988 22.8161 50.4262 22.8161C50.2002 22.8161 49.7601 22.7923 49.5817 22.7685V24.9926C49.7482 25.0402 50.4618 25.064 50.6759 25.064Z" fill="black"/>
</g>
<defs>
<clipPath id="clip0_1_761">
<rect width="60.8944" height="25" fill="white" transform="translate(0.116943 0.0639648)"/>
</clipPath>
</defs>
</svg>
