<svg width="28" height="29" viewBox="0 0 28 29" fill="none" xmlns="http://www.w3.org/2000/svg">
<path d="M13.5613 8.92567C12.5393 8.92567 10.9573 7.76367 9.29128 7.80567C7.09328 7.83367 5.07728 9.07967 3.94328 11.0537C1.66128 15.0157 3.35528 20.8677 5.58128 24.0877C6.67328 25.6557 7.96128 27.4197 9.66928 27.3637C11.3073 27.2937 11.9233 26.2997 13.9113 26.2997C15.8853 26.2997 16.4453 27.3637 18.1813 27.3217C19.9453 27.2937 21.0653 25.7257 22.1433 24.1437C23.3893 22.3237 23.9073 20.5597 23.9353 20.4617C23.8933 20.4477 20.5053 19.1457 20.4633 15.2257C20.4353 11.9497 23.1373 10.3817 23.2633 10.3117C21.7233 8.05767 19.3573 7.80567 18.5313 7.74967C16.3753 7.58167 14.5693 8.92567 13.5613 8.92567ZM17.2013 5.62167C18.1113 4.52967 18.7133 3.00367 18.5453 1.49167C17.2433 1.54767 15.6753 2.35967 14.7373 3.45167C13.8973 4.41767 13.1693 5.97167 13.3653 7.45567C14.8073 7.56767 16.2913 6.71367 17.2013 5.62167Z" fill="#5bb5a2"/>
</svg>
