<svg width="449" height="100" viewBox="0 0 449 100" fill="none" xmlns="http://www.w3.org/2000/svg">
<path d="M31.2766 77.8723C27.305 77.8723 23.8298 77.1277 20.8511 75.6383C17.8723 74.1489 15.461 72.0567 13.617 69.3617L12.1277 76.5957H0V0H13.617V31.383C15.3191 29.0426 17.5532 26.9858 20.3191 25.2128C23.156 23.4397 26.8085 22.5532 31.2766 22.5532C36.2411 22.5532 40.6738 23.7589 44.5745 26.1702C48.4752 28.5816 51.5603 31.8794 53.8298 36.0638C56.0993 40.2482 57.234 45 57.234 50.3192C57.234 55.6383 56.0993 60.3901 53.8298 64.5745C51.5603 68.6879 48.4752 71.9504 44.5745 74.3617C40.6738 76.7021 36.2411 77.8723 31.2766 77.8723ZM28.4043 65.9574C32.7305 65.9574 36.3121 64.5035 39.1489 61.5957C41.9858 58.6879 43.4043 54.9291 43.4043 50.3192C43.4043 45.7092 41.9858 41.9149 39.1489 38.9362C36.3121 35.9574 32.7305 34.4681 28.4043 34.4681C24.0071 34.4681 20.3901 35.9574 17.5532 38.9362C14.7872 41.844 13.4043 45.6028 13.4043 50.2128C13.4043 54.8227 14.7872 58.617 17.5532 61.5957C20.3901 64.5035 24.0071 65.9574 28.4043 65.9574Z" fill="#5BB5A2"/>
<path d="M84.3983 77.8723C79.8593 77.8723 76.1359 77.1631 73.2281 75.7447C70.3203 74.2553 68.1571 72.305 66.7387 69.8936C65.3203 67.4823 64.611 64.8227 64.611 61.9149C64.611 57.0213 66.5259 53.0496 70.3557 50C74.1855 46.9504 79.9302 45.4255 87.5898 45.4255H100.994V44.1489C100.994 40.5319 99.9656 37.8723 97.9089 36.1702C95.8522 34.4681 93.299 33.617 90.2493 33.617C87.4834 33.617 85.072 34.2908 83.0153 35.6383C80.9586 36.9149 79.682 38.8298 79.1855 41.383H65.8876C66.2422 37.5532 67.5188 34.2199 69.7174 31.383C71.9869 28.5461 74.8947 26.383 78.4408 24.8936C81.9869 23.3333 85.9586 22.5532 90.3557 22.5532C97.8735 22.5532 103.795 24.4326 108.122 28.1915C112.448 31.9504 114.611 37.2695 114.611 44.1489V76.5957H103.015L101.739 68.0851C100.178 70.922 97.9798 73.2624 95.143 75.1064C92.377 76.9504 88.7954 77.8723 84.3983 77.8723ZM87.4834 67.234C91.3841 67.234 94.3983 65.9574 96.5259 63.4043C98.7245 60.8511 100.107 57.695 100.675 53.9362H89.0791C85.4621 53.9362 82.8734 54.6099 81.3132 55.9574C79.7529 57.234 78.9727 58.8298 78.9727 60.7447C78.9727 62.8014 79.7529 64.3972 81.3132 65.5319C82.8734 66.6667 84.9302 67.234 87.4834 67.234Z" fill="#5BB5A2"/>
<path d="M124.414 76.5957V23.8298H136.435L137.499 32.766C139.13 29.6454 141.471 27.1631 144.52 25.3191C147.641 23.4752 151.293 22.5532 155.478 22.5532C162.003 22.5532 167.074 24.6099 170.691 28.7234C174.308 32.8369 176.116 38.8653 176.116 46.8085V76.5957H162.499V48.0851C162.499 43.5461 161.577 40.0709 159.733 37.6596C157.889 35.2482 155.017 34.0426 151.116 34.0426C147.286 34.0426 144.13 35.3901 141.648 38.0851C139.237 40.7801 138.031 44.539 138.031 49.3617V76.5957H124.414Z" fill="#5BB5A2"/>
<path d="M227.861 100V69.0426C226.159 71.383 223.889 73.4397 221.052 75.2128C218.286 76.9858 214.669 77.8723 210.201 77.8723C205.237 77.8723 200.804 76.6667 196.903 74.2553C193.003 71.844 189.917 68.5461 187.648 64.3617C185.378 60.1773 184.244 55.4255 184.244 50.1064C184.244 44.7872 185.378 40.0709 187.648 35.9574C189.917 31.773 193.003 28.5106 196.903 26.1702C200.804 23.7589 205.237 22.5532 210.201 22.5532C214.173 22.5532 217.648 23.2979 220.627 24.7872C223.605 26.2766 226.017 28.3688 227.861 31.0638L229.35 23.8298H241.478V100H227.861ZM213.073 65.9574C217.471 65.9574 221.052 64.5035 223.818 61.5957C226.655 58.617 228.073 54.8227 228.073 50.2128C228.073 45.6028 226.655 41.844 223.818 38.9362C221.052 35.9574 217.471 34.4681 213.073 34.4681C208.747 34.4681 205.166 35.922 202.329 38.8298C199.492 41.7376 198.073 45.4965 198.073 50.1064C198.073 54.7163 199.492 58.5106 202.329 61.4894C205.166 64.4681 208.747 65.9574 213.073 65.9574Z" fill="#5BB5A2"/>
<path d="M271.94 77.8723C265.344 77.8723 260.238 75.8156 256.621 71.7021C253.075 67.5887 251.302 61.5603 251.302 53.617V23.8298H264.812V52.3404C264.812 56.8794 265.734 60.3546 267.578 62.766C269.422 65.1773 272.33 66.383 276.302 66.383C280.06 66.383 283.145 65.0355 285.557 62.3404C288.039 59.6454 289.28 55.8865 289.28 51.0638V23.8298H302.897V76.5957H290.876L289.812 67.6596C288.181 70.7801 285.805 73.2624 282.684 75.1064C279.635 76.9504 276.053 77.8723 271.94 77.8723Z" fill="#5BB5A2"/>
<path d="M339.323 77.8723C334.003 77.8723 329.287 76.7376 325.174 74.4681C321.06 72.1986 317.833 69.0071 315.493 64.8936C313.152 60.7801 311.982 56.0284 311.982 50.6383C311.982 45.1773 313.117 40.3191 315.386 36.0638C317.727 31.8085 320.918 28.5106 324.961 26.1702C329.074 23.7589 333.897 22.5532 339.429 22.5532C344.606 22.5532 349.181 23.6879 353.152 25.9574C357.124 28.2269 360.209 31.3475 362.408 35.3191C364.677 39.2199 365.812 43.5816 365.812 48.4043C365.812 49.1844 365.776 50 365.706 50.8511C365.706 51.7021 365.67 52.5887 365.599 53.5106H325.493C325.777 57.6241 327.195 60.8511 329.748 63.1915C332.372 65.5319 335.528 66.7021 339.216 66.7021C341.982 66.7021 344.287 66.0993 346.131 64.8936C348.046 63.617 349.464 61.9858 350.386 60H364.216C363.223 63.3333 361.557 66.383 359.216 69.1489C356.947 71.844 354.11 73.9716 350.706 75.5319C347.372 77.0922 343.578 77.8723 339.323 77.8723ZM339.429 33.617C336.096 33.617 333.152 34.5745 330.599 36.4894C328.046 38.3333 326.415 41.1702 325.706 45H351.982C351.769 41.5248 350.493 38.7589 348.152 36.7021C345.812 34.6454 342.904 33.617 339.429 33.617Z" fill="#5BB5A2"/>
<path d="M399.712 77.8723C394.392 77.8723 389.676 76.7376 385.563 74.4681C381.449 72.1986 378.222 69.0071 375.882 64.8936C373.541 60.7801 372.371 56.0284 372.371 50.6383C372.371 45.1773 373.506 40.3191 375.775 36.0638C378.116 31.8085 381.307 28.5106 385.35 26.1702C389.463 23.7589 394.286 22.5532 399.818 22.5532C404.995 22.5532 409.57 23.6879 413.541 25.9574C417.513 28.2269 420.598 31.3475 422.797 35.3191C425.066 39.2199 426.201 43.5816 426.201 48.4043C426.201 49.1844 426.165 50 426.095 50.8511C426.095 51.7021 426.059 52.5887 425.988 53.5106H385.882C386.165 57.6241 387.584 60.8511 390.137 63.1915C392.761 65.5319 395.917 66.7021 399.605 66.7021C402.371 66.7021 404.676 66.0993 406.52 64.8936C408.435 63.617 409.853 61.9858 410.775 60H424.605C423.612 63.3333 421.946 66.383 419.605 69.1489C417.336 71.844 414.499 73.9716 411.095 75.5319C407.761 77.0922 403.967 77.8723 399.712 77.8723ZM399.818 33.617C396.485 33.617 393.541 34.5745 390.988 36.4894C388.435 38.3333 386.804 41.1702 386.095 45H412.371C412.158 41.5248 410.882 38.7589 408.541 36.7021C406.201 34.6454 403.293 33.617 399.818 33.617Z" fill="#5BB5A2"/>
<path d="M440.313 77.3404C437.831 77.3404 435.774 76.5603 434.143 75C432.583 73.4397 431.803 71.5603 431.803 69.3617C431.803 67.0922 432.583 65.1773 434.143 63.617C435.774 62.0567 437.831 61.2766 440.313 61.2766C442.796 61.2766 444.817 62.0567 446.377 63.617C448.008 65.1773 448.824 67.0922 448.824 69.3617C448.824 71.5603 448.008 73.4397 446.377 75C444.817 76.5603 442.796 77.3404 440.313 77.3404Z" fill="#5BB5A2"/>
</svg>
