<svg width="136" height="31" viewBox="0 0 136 31" fill="none" xmlns="http://www.w3.org/2000/svg">
<path d="M9.408 23.424C8.21333 23.424 7.168 23.2 6.272 22.752C5.376 22.304 4.65067 21.6747 4.096 20.864L3.648 23.04H0V0H4.096V9.44C4.608 8.736 5.28 8.11733 6.112 7.584C6.96533 7.05067 8.064 6.784 9.408 6.784C10.9013 6.784 12.2347 7.14667 13.408 7.872C14.5813 8.59733 15.5093 9.58933 16.192 10.848C16.8747 12.1067 17.216 13.536 17.216 15.136C17.216 16.736 16.8747 18.1653 16.192 19.424C15.5093 20.6613 14.5813 21.6427 13.408 22.368C12.2347 23.072 10.9013 23.424 9.408 23.424ZM8.544 19.84C9.84533 19.84 10.9227 19.4027 11.776 18.528C12.6293 17.6533 13.056 16.5227 13.056 15.136C13.056 13.7493 12.6293 12.608 11.776 11.712C10.9227 10.816 9.84533 10.368 8.544 10.368C7.22133 10.368 6.13333 10.816 5.28 11.712C4.448 12.5867 4.032 13.7173 4.032 15.104C4.032 16.4907 4.448 17.632 5.28 18.528C6.13333 19.4027 7.22133 19.84 8.544 19.84Z" fill="#5BB5A2"/>
<path d="M25.387 23.424C24.0217 23.424 22.9017 23.2107 22.027 22.784C21.1523 22.336 20.5017 21.7493 20.075 21.024C19.6483 20.2987 19.435 19.4987 19.435 18.624C19.435 17.152 20.011 15.9573 21.163 15.04C22.315 14.1227 24.043 13.664 26.347 13.664H30.379V13.28C30.379 12.192 30.0697 11.392 29.451 10.88C28.8323 10.368 28.0643 10.112 27.147 10.112C26.315 10.112 25.5897 10.3147 24.971 10.72C24.3523 11.104 23.9683 11.68 23.819 12.448H19.819C19.9257 11.296 20.3097 10.2933 20.971 9.44C21.6537 8.58667 22.5283 7.936 23.595 7.488C24.6617 7.01867 25.8563 6.784 27.179 6.784C29.4403 6.784 31.2217 7.34933 32.523 8.48C33.8243 9.61067 34.475 11.2107 34.475 13.28V23.04H30.987L30.603 20.48C30.1337 21.3333 29.4723 22.0373 28.619 22.592C27.787 23.1467 26.7097 23.424 25.387 23.424ZM26.315 20.224C27.4883 20.224 28.395 19.84 29.035 19.072C29.6963 18.304 30.1123 17.3547 30.283 16.224H26.795C25.707 16.224 24.9283 16.4267 24.459 16.832C23.9897 17.216 23.755 17.696 23.755 18.272C23.755 18.8907 23.9897 19.3707 24.459 19.712C24.9283 20.0533 25.547 20.224 26.315 20.224Z" fill="#5BB5A2"/>
<path d="M37.4238 23.04V7.168H41.0397L41.3597 9.856C41.8504 8.91733 42.5544 8.17067 43.4717 7.616C44.4104 7.06133 45.5091 6.784 46.7677 6.784C48.7304 6.784 50.2558 7.40267 51.3438 8.64C52.4318 9.87733 52.9757 11.6907 52.9757 14.08V23.04H48.8797V14.464C48.8797 13.0987 48.6024 12.0533 48.0478 11.328C47.4931 10.6027 46.6291 10.24 45.4557 10.24C44.3037 10.24 43.3544 10.6453 42.6077 11.456C41.8824 12.2667 41.5197 13.3973 41.5197 14.848V23.04H37.4238Z" fill="#5BB5A2"/>
<path d="M68.5405 30.08V20.768C68.0285 21.472 67.3458 22.0907 66.4925 22.624C65.6605 23.1573 64.5725 23.424 63.2285 23.424C61.7352 23.424 60.4018 23.0613 59.2285 22.336C58.0552 21.6107 57.1272 20.6187 56.4445 19.36C55.7618 18.1013 55.4205 16.672 55.4205 15.072C55.4205 13.472 55.7618 12.0533 56.4445 10.816C57.1272 9.55733 58.0552 8.576 59.2285 7.872C60.4018 7.14667 61.7352 6.784 63.2285 6.784C64.4232 6.784 65.4685 7.008 66.3645 7.456C67.2605 7.904 67.9858 8.53333 68.5405 9.344L68.9885 7.168H72.6365V30.08H68.5405ZM64.0925 19.84C65.4152 19.84 66.4925 19.4027 67.3245 18.528C68.1778 17.632 68.6045 16.4907 68.6045 15.104C68.6045 13.7173 68.1778 12.5867 67.3245 11.712C66.4925 10.816 65.4152 10.368 64.0925 10.368C62.7912 10.368 61.7138 10.8053 60.8605 11.68C60.0072 12.5547 59.5805 13.6853 59.5805 15.072C59.5805 16.4587 60.0072 17.6 60.8605 18.496C61.7138 19.392 62.7912 19.84 64.0925 19.84Z" fill="#5BB5A2"/>
<path d="M81.7995 23.424C79.8155 23.424 78.2795 22.8053 77.1915 21.568C76.1248 20.3307 75.5915 18.5173 75.5915 16.128V7.168H79.6555V15.744C79.6555 17.1093 79.9328 18.1547 80.4875 18.88C81.0422 19.6053 81.9168 19.968 83.1115 19.968C84.2422 19.968 85.1702 19.5627 85.8955 18.752C86.6422 17.9413 87.0155 16.8107 87.0155 15.36V7.168H91.1115V23.04H87.4955L87.1755 20.352C86.6848 21.2907 85.9702 22.0373 85.0315 22.592C84.1142 23.1467 83.0368 23.424 81.7995 23.424Z" fill="#5BB5A2"/>
<path d="M102.068 23.424C100.468 23.424 99.0496 23.0827 97.8122 22.4C96.5749 21.7173 95.6042 20.7573 94.9002 19.52C94.1962 18.2827 93.8442 16.8533 93.8442 15.232C93.8442 13.5893 94.1856 12.128 94.8682 10.848C95.5723 9.568 96.5322 8.576 97.7482 7.872C98.9856 7.14667 100.436 6.784 102.1 6.784C103.658 6.784 105.034 7.12533 106.228 7.808C107.423 8.49067 108.351 9.42933 109.012 10.624C109.695 11.7973 110.036 13.1093 110.036 14.56C110.036 14.7947 110.026 15.04 110.004 15.296C110.004 15.552 109.994 15.8187 109.972 16.096H97.9082C97.9936 17.3333 98.4202 18.304 99.1882 19.008C99.9776 19.712 100.927 20.064 102.036 20.064C102.868 20.064 103.562 19.8827 104.116 19.52C104.692 19.136 105.119 18.6453 105.396 18.048H109.556C109.258 19.0507 108.756 19.968 108.052 20.8C107.37 21.6107 106.516 22.2507 105.492 22.72C104.49 23.1893 103.348 23.424 102.068 23.424ZM102.1 10.112C101.098 10.112 100.212 10.4 99.4442 10.976C98.6762 11.5307 98.1856 12.384 97.9722 13.536H105.876C105.812 12.4907 105.428 11.6587 104.724 11.04C104.02 10.4213 103.146 10.112 102.1 10.112Z" fill="#5BB5A2"/>
<path d="M120.233 23.424C118.633 23.424 117.215 23.0827 115.977 22.4C114.74 21.7173 113.769 20.7573 113.065 19.52C112.361 18.2827 112.009 16.8533 112.009 15.232C112.009 13.5893 112.351 12.128 113.033 10.848C113.737 9.568 114.697 8.576 115.913 7.872C117.151 7.14667 118.601 6.784 120.265 6.784C121.823 6.784 123.199 7.12533 124.393 7.808C125.588 8.49067 126.516 9.42933 127.177 10.624C127.86 11.7973 128.201 13.1093 128.201 14.56C128.201 14.7947 128.191 15.04 128.169 15.296C128.169 15.552 128.159 15.8187 128.137 16.096H116.073C116.159 17.3333 116.585 18.304 117.353 19.008C118.143 19.712 119.092 20.064 120.201 20.064C121.033 20.064 121.727 19.8827 122.281 19.52C122.857 19.136 123.284 18.6453 123.561 18.048H127.721C127.423 19.0507 126.921 19.968 126.217 20.8C125.535 21.6107 124.681 22.2507 123.657 22.72C122.655 23.1893 121.513 23.424 120.233 23.424ZM120.265 10.112C119.263 10.112 118.377 10.4 117.609 10.976C116.841 11.5307 116.351 12.384 116.137 13.536H124.041C123.977 12.4907 123.593 11.6587 122.889 11.04C122.185 10.4213 121.311 10.112 120.265 10.112Z" fill="#5BB5A2"/>
<path d="M132.446 23.264C131.7 23.264 131.081 23.0293 130.59 22.56C130.121 22.0907 129.886 21.5253 129.886 20.864C129.886 20.1813 130.121 19.6053 130.59 19.136C131.081 18.6667 131.7 18.432 132.446 18.432C133.193 18.432 133.801 18.6667 134.27 19.136C134.761 19.6053 135.006 20.1813 135.006 20.864C135.006 21.5253 134.761 22.0907 134.27 22.56C133.801 23.0293 133.193 23.264 132.446 23.264Z" fill="#5BB5A2"/>
</svg>
