<svg width="72" height="73" viewBox="0 0 72 73" fill="none" xmlns="http://www.w3.org/2000/svg">
<g clip-path="url(#clip0_1_630)">
<path d="M14 48.7236C17.914 48.7236 21.266 50.9936 22.91 54.2676L29.864 50.7896C26.976 44.8396 20.892 40.7236 13.832 40.7236C11.3152 40.7242 8.82732 41.2608 6.534 42.2976L9.87 49.6376C11.1652 49.0402 12.5737 48.7285 14 48.7236ZM58 48.7236C60.934 48.7236 63.544 50.0096 65.376 52.0196L71.17 46.7496C69.5022 44.8556 67.4501 43.3385 65.1503 42.2995C62.8505 41.2604 60.3557 40.7232 57.832 40.7236C50.68 40.7236 44.528 44.9456 41.686 51.0236L48.982 54.4676C50.586 51.0836 54.006 48.7236 58 48.7236Z" fill="#EA596E"/>
<path d="M14 44.7236C12.1615 44.7236 10.341 45.0858 8.64243 45.7893C6.94387 46.4929 5.40053 47.5241 4.10051 48.8241C2.80049 50.1242 1.76925 51.6675 1.06569 53.3661C0.362121 55.0646 0 56.8851 0 58.7236C0 60.5621 0.362121 62.3826 1.06569 64.0812C1.76925 65.7798 2.80049 67.3231 4.10051 68.6231C5.40053 69.9232 6.94387 70.9544 8.64243 71.6579C10.341 72.3615 12.1615 72.7236 14 72.7236C17.713 72.7236 21.274 71.2486 23.8995 68.6231C26.525 65.9976 28 62.4367 28 58.7236C28 55.0106 26.525 51.4496 23.8995 48.8241C21.274 46.1986 17.713 44.7236 14 44.7236ZM14 68.7236C11.3478 68.7236 8.8043 67.6701 6.92893 65.7947C5.05357 63.9193 4 61.3758 4 58.7236C4 56.0715 5.05357 53.5279 6.92893 51.6526C8.8043 49.7772 11.3478 48.7236 14 48.7236C16.6522 48.7236 19.1957 49.7772 21.0711 51.6526C22.9464 53.5279 24 56.0715 24 58.7236C24 61.3758 22.9464 63.9193 21.0711 65.7947C19.1957 67.6701 16.6522 68.7236 14 68.7236ZM58 44.7236C54.2867 44.7239 50.7256 46.1993 48.1001 48.8251C45.4746 51.451 43.9997 55.0123 44 58.7256C44.0003 62.4389 45.4756 66 48.1015 68.6255C50.7274 71.2511 54.2887 72.7259 58.002 72.7256C59.8406 72.7255 61.6612 72.3632 63.3599 71.6595C65.0585 70.9557 66.6019 69.9243 67.9019 68.6241C69.2019 67.3239 70.2331 65.7804 70.9366 64.0817C71.6401 62.3829 72.0021 60.5623 72.002 58.7236C72.0019 56.885 71.6396 55.0644 70.9359 53.3658C70.2321 51.6671 69.2007 50.1237 67.9005 48.8237C66.6003 47.5237 65.0568 46.4925 63.358 45.789C61.6593 45.0855 59.8386 44.7235 58 44.7236ZM58 68.7236C55.3478 68.7236 52.8043 67.6701 50.9289 65.7947C49.0536 63.9193 48 61.3758 48 58.7236C48 56.0715 49.0536 53.5279 50.9289 51.6526C52.8043 49.7772 55.3478 48.7236 58 48.7236C60.6522 48.7236 63.1957 49.7772 65.0711 51.6526C66.9464 53.5279 68 56.0715 68 58.7236C68 61.3758 66.9464 63.9193 65.0711 65.7947C63.1957 67.6701 60.6522 68.7236 58 68.7236Z" fill="#292F33"/>
<path d="M59.968 58.5676C59.955 58.4332 59.9282 58.3005 59.888 58.1716C59.8529 58.0433 59.8053 57.9187 59.746 57.7996C59.72 57.7516 59.716 57.6956 59.688 57.6496L45.688 35.6496C45.547 35.4279 45.3637 35.2361 45.1486 35.0852C44.9335 34.9343 44.6907 34.8273 44.4342 34.7703C44.1777 34.7133 43.9125 34.7074 43.6537 34.7529C43.3949 34.7984 43.1476 34.8945 42.926 35.0356C42.6467 35.218 42.4184 35.4684 42.2627 35.7634C42.107 36.0584 42.029 36.3882 42.036 36.7216H24C23.4696 36.7216 22.9609 36.9323 22.5858 37.3074C22.2107 37.6825 22 38.1912 22 38.7216C22 39.2521 22.2107 39.7608 22.5858 40.1358C22.9609 40.5109 23.4696 40.7216 24 40.7216H44C44.054 40.7216 44.1 40.6936 44.154 40.6896L54.356 56.7236H36C35.4696 56.7236 34.9609 56.9343 34.5858 57.3094C34.2107 57.6845 34 58.1932 34 58.7236C34 59.2541 34.2107 59.7628 34.5858 60.1378C34.9609 60.5129 35.4696 60.7236 36 60.7236H58.002C58.3086 60.7169 58.6095 60.6402 58.882 60.4996C58.944 60.4656 59.014 60.4516 59.076 60.4116C59.136 60.3716 59.172 60.3096 59.226 60.2676C59.4326 60.1064 59.6035 59.9042 59.728 59.6736C59.788 59.5616 59.838 59.4536 59.878 59.3296C59.9186 59.1988 59.9455 59.0641 59.958 58.9276C59.966 58.8556 60 58.7956 60 58.7236C60 58.6696 59.972 58.6216 59.968 58.5676Z" fill="#DD2E44"/>
<path d="M43.162 32.7236L37.364 48.9576L25.506 35.4076C25.3341 35.2067 25.1239 35.0418 24.8878 34.9226C24.6517 34.8034 24.3943 34.7323 24.1305 34.7132C23.8666 34.6942 23.6017 34.7277 23.3509 34.8117C23.1001 34.8958 22.8685 35.0288 22.6694 35.2029C22.4704 35.3771 22.3079 35.5891 22.1913 35.8265C22.0747 36.0639 22.0064 36.3221 21.9902 36.5861C21.9741 36.8501 22.0105 37.1147 22.0973 37.3645C22.1841 37.6144 22.3197 37.8445 22.496 38.0416L35.824 53.2716L34.116 58.0516C33.9378 58.5513 33.9654 59.1013 34.1927 59.5806C34.42 60.06 34.8284 60.4294 35.328 60.6076C35.8277 60.7859 36.3777 60.7583 36.857 60.531C37.3364 60.3037 37.7058 59.8953 37.884 59.3956L47.41 32.7236H43.162Z" fill="#DD2E44"/>
<path d="M14 60.7236C13.6594 60.7231 13.3245 60.6356 13.0272 60.4694C12.7299 60.3032 12.48 60.0639 12.3011 59.774C12.1222 59.4841 12.0203 59.1534 12.0051 58.8131C11.9898 58.4729 12.0617 58.1343 12.214 57.8296L18.338 45.6176C18.372 45.5616 22 40.0256 22 34.7236C22 28.2396 17.414 26.6376 17.368 26.6216C17.1156 26.5411 16.8818 26.4113 16.68 26.2397C16.4783 26.0681 16.3126 25.8581 16.1927 25.6219C16.0727 25.3858 16.0009 25.1282 15.9813 24.864C15.9617 24.5999 15.9948 24.3344 16.0787 24.0832C16.1625 23.8319 16.2954 23.5998 16.4697 23.4004C16.644 23.2009 16.8561 23.038 17.0939 22.9212C17.3316 22.8044 17.5901 22.736 17.8545 22.7199C18.1189 22.7039 18.3839 22.7405 18.634 22.8276C18.934 22.9276 26 25.3896 26 34.7236C26 40.8596 22.328 46.8076 21.738 47.7176L15.79 59.6156C15.6247 59.9489 15.3694 60.2293 15.0531 60.4251C14.7368 60.6209 14.372 60.7243 14 60.7236Z" fill="#DD2E44"/>
<path d="M29.224 28.0497C29.1134 28.0502 29.003 28.0408 28.894 28.0217L16.894 26.0217C16.3708 25.9344 15.9036 25.6428 15.5953 25.2111C15.287 24.7794 15.1628 24.2429 15.25 23.7197C15.3373 23.1964 15.6288 22.7292 16.0605 22.4209C16.4923 22.1126 17.0288 21.9884 17.552 22.0757L29.552 24.0757C30.0486 24.1565 30.4964 24.4215 30.8063 24.8179C31.1162 25.2142 31.2653 25.7128 31.2239 26.2142C31.1825 26.7156 30.9537 27.1829 30.583 27.5231C30.2124 27.8633 29.7271 28.0513 29.224 28.0497ZM52.766 34.7237C52.7065 34.7236 52.647 34.7196 52.588 34.7117L41.244 33.2957C40.875 33.265 40.5327 33.091 40.2904 32.8109C40.0481 32.5309 39.9252 32.1671 39.9479 31.7975C39.9707 31.4279 40.1373 31.0819 40.4121 30.8337C40.6869 30.5855 41.048 30.4548 41.418 30.4697C41.5 30.4697 49.552 30.4337 53.396 27.8717C53.6423 27.7086 53.9331 27.626 54.2283 27.6353C54.5235 27.6446 54.8085 27.7454 55.044 27.9237C55.2778 28.104 55.4498 28.3525 55.5362 28.6348C55.6225 28.9172 55.619 29.2194 55.526 29.4997L54.108 33.7537C54.0152 34.0362 53.8354 34.2822 53.5944 34.4564C53.3534 34.6306 53.0634 34.7242 52.766 34.7237Z" fill="#292F33"/>
<path d="M40 58.7236C40 59.7845 39.5786 60.8019 38.8284 61.5521C38.0783 62.3022 37.0609 62.7236 36 62.7236C34.9391 62.7236 33.9217 62.3022 33.1716 61.5521C32.4214 60.8019 32 59.7845 32 58.7236C32 57.6628 32.4214 56.6454 33.1716 55.8952C33.9217 55.1451 34.9391 54.7236 36 54.7236C37.0609 54.7236 38.0783 55.1451 38.8284 55.8952C39.5786 56.6454 40 57.6628 40 58.7236Z" fill="#66757F"/>
</g>
<defs>
<clipPath id="clip0_1_630">
<rect width="72" height="72" fill="white" transform="translate(0 0.723633)"/>
</clipPath>
</defs>
</svg>
