<svg width="121" height="26" viewBox="0 0 121 26" fill="none" xmlns="http://www.w3.org/2000/svg">
<g clip-path="url(#clip0_1_718)">
<path d="M25.259 15.5892C23.5895 22.2856 16.8072 26.361 10.11 24.6911C3.41561 23.0216 -0.659725 16.2388 1.01056 9.54286C2.67929 2.84569 9.46161 -1.23002 16.1568 0.439485C22.8536 2.10899 26.9285 8.89248 25.259 15.5892Z" fill="#F7931A"/>
<path d="M18.6458 10.7846C18.8947 9.12134 17.6283 8.22722 15.8967 7.63074L16.4584 5.37765L15.0869 5.03586L14.5401 7.22957C14.1795 7.13973 13.8092 7.05497 13.4412 6.97099L13.992 4.76281L12.6213 4.42102L12.0592 6.67333C11.7608 6.60536 11.4678 6.53818 11.1835 6.46748L11.185 6.46044L9.29365 5.98818L8.92882 7.453C8.92882 7.453 9.94638 7.6862 9.92489 7.70066C10.4804 7.83932 10.5807 8.20689 10.5639 8.4983L9.92411 11.0651C9.96239 11.0748 10.012 11.0889 10.0667 11.1108C10.021 11.0994 9.97216 11.0869 9.92177 11.0748L9.0249 14.6705C8.95693 14.8392 8.78468 15.0923 8.3964 14.9962C8.41007 15.0162 7.39954 14.7474 7.39954 14.7474L6.71869 16.3173L8.50343 16.7622C8.83545 16.8454 9.16083 16.9325 9.48114 17.0146L8.91358 19.2934L10.2835 19.6352L10.8456 17.3806C11.2198 17.4821 11.5831 17.5759 11.9385 17.6642L11.3784 19.9083L12.7498 20.2501L13.3174 17.9755C15.6561 18.4181 17.4146 18.2396 18.1548 16.1244C18.7513 14.4213 18.1251 13.4389 16.8947 12.7982C17.7908 12.5916 18.4658 12.0022 18.6458 10.7846ZM15.5123 15.1787C15.0885 16.8818 12.2209 15.9611 11.2913 15.7302L12.0444 12.7111C12.9741 12.9431 15.9553 13.4025 15.5123 15.1787ZM15.9365 10.76C15.5498 12.3092 13.1631 11.5221 12.3889 11.3291L13.0717 8.59088C13.8459 8.78385 16.3392 9.14399 15.9365 10.76Z" fill="white"/>
<path d="M37.2667 7.62847C38.2803 7.62847 39.1561 7.8101 39.892 8.16674C40.6315 8.52689 41.2416 9.01204 41.731 9.62219C42.2138 10.2355 42.5732 10.9522 42.8052 11.7737C43.0357 12.5975 43.1513 13.4831 43.1513 14.4311C43.1513 15.8873 42.8845 17.2631 42.3459 18.5599C41.8072 19.8587 41.0764 20.9853 40.1467 21.9462C39.2178 22.906 38.1209 23.6626 36.8561 24.2216C35.5932 24.7809 34.2202 25.0606 32.746 25.0606C32.5554 25.0606 32.2202 25.0552 31.7468 25.0454C31.2734 25.0356 30.7293 24.9868 30.1199 24.9044C29.5066 24.8188 28.8582 24.6923 28.1734 24.5227C27.4891 24.3563 26.8391 24.1231 26.227 23.827L31.7003 0.82897L36.6026 0.0692139L34.6429 8.23042C35.0624 8.04136 35.485 7.89487 35.9069 7.78823C36.3292 7.68315 36.7823 7.62847 37.2667 7.62847ZM33.1546 21.1716C33.8929 21.1716 34.5886 20.99 35.2421 20.6333C35.8975 20.2763 36.4632 19.7943 36.937 19.1939C37.4108 18.5908 37.7858 17.9115 38.0592 17.1525C38.3327 16.3936 38.4709 15.6018 38.4709 14.778C38.4709 13.7659 38.3018 12.9764 37.9647 12.4057C37.6276 11.8374 37.0038 11.5515 36.0979 11.5515C35.8011 11.5515 35.4186 11.6081 34.9444 11.7093C34.4687 11.8167 34.0429 12.0397 33.6612 12.3753L31.5746 21.0423C31.7003 21.0646 31.8117 21.0857 31.9066 21.1056C31.9995 21.1271 32.1023 21.1423 32.2046 21.1529C32.3128 21.165 32.4367 21.1712 32.5863 21.1712C32.7359 21.1712 32.923 21.1716 33.1546 21.1716Z" fill="#4D4D4D"/>
<path d="M48.2352 24.6204H43.5529L47.5071 7.98121H52.2215L48.2352 24.6204ZM50.5137 5.95389C49.8602 5.95389 49.2676 5.75936 48.7418 5.36953C48.2118 4.98203 47.9493 4.38556 47.9493 3.58166C47.9493 3.13948 48.0391 2.72464 48.2172 2.33324C48.3981 1.94262 48.6344 1.6063 48.9305 1.32037C49.2262 1.03678 49.5688 0.810219 49.9578 0.639518C50.3492 0.471552 50.7656 0.387573 51.2094 0.387573C51.8625 0.387573 52.4519 0.582102 52.9797 0.97194C53.5054 1.36373 53.7699 1.9602 53.7699 2.7598C53.7699 3.20354 53.6804 3.61994 53.5008 4.01056C53.3222 4.40118 53.0859 4.7375 52.7898 5.02343C52.4965 5.30741 52.1508 5.53319 51.7625 5.70233C51.3707 5.87303 50.9559 5.95389 50.5137 5.95389Z" fill="#4D4D4D"/>
<path d="M56.325 3.83556L61.2292 3.07581L60.0249 7.98042H65.2772L64.3287 11.8389H59.1081L57.7175 17.6592C57.5894 18.1443 57.5167 18.5974 57.4964 19.0185C57.4734 19.4416 57.5269 19.8048 57.6534 20.1107C57.7792 20.4173 58.0054 20.6537 58.3335 20.8208C58.6601 20.9908 59.1276 21.0763 59.7409 21.0763C60.246 21.0763 60.7382 21.0283 61.2139 20.9329C61.687 20.8392 62.1663 20.7087 62.6514 20.538L63.0006 24.1458C62.3678 24.3778 61.6827 24.5774 60.9444 24.7454C60.205 24.9157 59.3296 24.9977 58.3179 24.9977C56.8632 24.9977 55.7355 24.7817 54.932 24.3517C54.1297 23.9185 53.5625 23.3267 53.223 22.5775C52.8883 21.831 52.7387 20.9705 52.7805 20.0009C52.8238 19.0291 52.9703 18.0076 53.223 16.9318L56.325 3.83556Z" fill="#4D4D4D"/>
<path d="M65.0709 17.9759C65.0709 16.5428 65.303 15.1912 65.7666 13.926C66.2295 12.6596 66.8963 11.5522 67.7615 10.6018C68.6236 9.65614 69.674 8.90693 70.9103 8.35694C72.1407 7.81007 73.5184 7.5343 75.0368 7.5343C75.9872 7.5343 76.836 7.62415 77.5828 7.80422C78.3328 7.98586 79.0113 8.22063 79.625 8.51515L78.0102 12.187C77.5883 12.0159 77.1504 11.8651 76.6977 11.7284C76.2446 11.5889 75.6915 11.5217 75.0372 11.5217C73.4743 11.5217 72.2388 12.0604 71.3193 13.1342C70.4033 14.2088 69.9419 15.6553 69.9419 17.4697C69.9419 18.5451 70.174 19.4146 70.6396 20.0798C71.1029 20.745 71.9587 21.0759 73.2013 21.0759C73.8145 21.0759 74.4063 21.0118 74.9731 20.8868C75.5442 20.7603 76.0485 20.6009 76.4926 20.4126L76.8422 24.1766C76.25 24.4063 75.5969 24.6137 74.8805 24.7954C74.1626 24.9707 73.3079 25.0618 72.3169 25.0618C71.0087 25.0618 69.9013 24.8704 68.9955 24.4934C68.0892 24.1106 67.3404 23.6024 66.7506 22.9587C66.1576 22.3134 65.7319 21.5599 65.4686 20.695C65.2053 19.831 65.0709 18.9232 65.0709 17.9759Z" fill="#4D4D4D"/>
<path d="M85.8713 25.0618C84.7538 25.0618 83.7831 24.8915 82.9597 24.5543C82.1386 24.2172 81.4585 23.7442 80.9206 23.1309C80.382 22.5208 79.9788 21.7977 79.7027 20.9646C79.4265 20.1318 79.2937 19.2095 79.2937 18.199C79.2937 16.9314 79.4972 15.6643 79.9085 14.4006C80.3179 13.1342 80.9253 11.9963 81.7292 10.985C82.5268 9.97216 83.5108 9.14404 84.6694 8.49834C85.8268 7.85695 87.158 7.5343 88.6533 7.5343C89.7506 7.5343 90.7162 7.705 91.5509 8.0421C92.3818 8.37842 93.0661 8.85538 93.6072 9.46552C94.1423 10.0788 94.5489 10.7987 94.8224 11.6331C95.0977 12.4643 95.2337 13.3889 95.2337 14.4002C95.2337 15.6639 95.0329 16.931 94.6345 18.1986C94.2357 19.4599 93.6439 20.6005 92.8626 21.6142C92.083 22.6255 91.108 23.4532 89.9369 24.0962C88.7674 24.7391 87.4111 25.0618 85.8713 25.0618ZM88.2115 11.5221C87.5174 11.5221 86.9037 11.7237 86.3784 12.1217C85.851 12.5245 85.4081 13.0307 85.051 13.6412C84.6901 14.2545 84.4225 14.9233 84.2417 15.6502C84.0624 16.3787 83.9745 17.0674 83.9745 17.7217C83.9745 18.7775 84.1448 19.5997 84.4796 20.1915C84.819 20.7802 85.4288 21.0763 86.3151 21.0763C87.0116 21.0763 87.6221 20.8763 88.1506 20.4739C88.6748 20.0743 89.1182 19.5677 89.4779 18.956C89.8365 18.3458 90.1064 17.6752 90.2873 16.9471C90.4642 16.2209 90.5545 15.5283 90.5545 14.8752C90.5545 13.8221 90.3849 12.9979 90.047 12.4069C89.7096 11.8182 89.0971 11.5221 88.2115 11.5221Z" fill="#4D4D4D"/>
<path d="M100.336 24.6204H95.6498L99.604 7.98121H104.321L100.336 24.6204ZM102.611 5.95389C101.958 5.95389 101.366 5.75936 100.841 5.36953C100.313 4.98203 100.049 4.38556 100.049 3.58166C100.049 3.13948 100.14 2.72464 100.318 2.33324C100.497 1.94262 100.734 1.6063 101.031 1.32037C101.325 1.03678 101.67 0.810219 102.059 0.639518C102.448 0.471552 102.864 0.387573 103.306 0.387573C103.961 0.387573 104.552 0.582102 105.079 0.97194C105.606 1.36373 105.872 1.9602 105.872 2.7598C105.872 3.20354 105.777 3.61994 105.6 4.01056C105.423 4.40118 105.186 4.7375 104.891 5.02343C104.594 5.30741 104.252 5.53319 103.863 5.70233C103.471 5.87303 103.056 5.95389 102.611 5.95389Z" fill="#4D4D4D"/>
<path d="M107.695 8.73775C108.051 8.63385 108.448 8.50885 108.879 8.37292C109.312 8.23698 109.796 8.11043 110.337 7.99637C110.872 7.87879 111.475 7.78348 112.139 7.70965C112.803 7.63426 113.559 7.59753 114.399 7.59753C116.869 7.59753 118.571 8.31667 119.511 9.75063C120.45 11.1846 120.612 13.1471 120.003 15.6345L117.849 24.6188H113.136L115.223 15.8236C115.351 15.2744 115.451 14.7435 115.524 14.2248C115.599 13.7107 115.595 13.2576 115.508 12.8654C115.424 12.4779 115.228 12.1607 114.924 11.915C114.615 11.6733 114.148 11.5518 113.515 11.5518C112.905 11.5518 112.283 11.6174 111.649 11.744L108.58 24.6184H103.865L107.695 8.73775Z" fill="#4D4D4D"/>
</g>
<defs>
<clipPath id="clip0_1_718">
<rect width="119.725" height="25" fill="white" transform="translate(0.637329 0.0639648)"/>
</clipPath>
</defs>
</svg>
