<svg width="54" height="55" viewBox="0 0 54 55" fill="none" xmlns="http://www.w3.org/2000/svg">
<g clip-path="url(#clip0_1_653)">
<path d="M0 15.7236C0 15.7236 0 9.72363 6 9.72363H48C48 9.72363 54 9.72363 54 15.7236V42.7236C54 42.7236 54 48.7236 48 48.7236H6C6 48.7236 0 48.7236 0 42.7236V15.7236Z" fill="#31373D"/>
<path d="M31.5 44.2236C39.7843 44.2236 46.5 37.5079 46.5 29.2236C46.5 20.9394 39.7843 14.2236 31.5 14.2236C23.2157 14.2236 16.5 20.9394 16.5 29.2236C16.5 37.5079 23.2157 44.2236 31.5 44.2236Z" fill="#CCD6DD"/>
<path d="M31.5 41.2236C38.1274 41.2236 43.5 35.851 43.5 29.2236C43.5 22.5962 38.1274 17.2236 31.5 17.2236C24.8726 17.2236 19.5 22.5962 19.5 29.2236C19.5 35.851 24.8726 41.2236 31.5 41.2236Z" fill="#31373D"/>
<path d="M31.5 36.7236C35.6421 36.7236 39 33.3658 39 29.2236C39 25.0815 35.6421 21.7236 31.5 21.7236C27.3579 21.7236 24 25.0815 24 29.2236C24 33.3658 27.3579 36.7236 31.5 36.7236Z" fill="#3B88C3"/>
<path d="M48.75 17.2236C49.9926 17.2236 51 16.2163 51 14.9736C51 13.731 49.9926 12.7236 48.75 12.7236C47.5074 12.7236 46.5 13.731 46.5 14.9736C46.5 16.2163 47.5074 17.2236 48.75 17.2236Z" fill="white"/>
<path d="M24 14.2236L28.5 5.22363L19.5 8.22363L13.5 0.723633L10.5 8.22363L1.5 6.72363L7.5 15.7236L0 21.7236H9L6 30.7236L15 26.2236L24 33.7236L22.5 21.7236L31.5 20.2236L24 14.2236Z" fill="#FFAC33"/>
<path d="M15 21.7236L10.5 24.7236L12 20.2236L7.5 18.7236L12 15.7236L7.5 11.2236H13.5L15 6.72363L18 11.2236L22.5 9.72363L19.5 14.2236L24 18.7236L19.5 20.2236L21 26.2236L15 21.7236Z" fill="white"/>
</g>
<defs>
<clipPath id="clip0_1_653">
<rect width="54" height="54" fill="white" transform="translate(0 0.723633)"/>
</clipPath>
</defs>
</svg>
