<svg width="64" height="26" viewBox="0 0 64 26" fill="none" xmlns="http://www.w3.org/2000/svg">
<g clip-path="url(#clip0_1_752)">
<path d="M29.9381 12.2773V19.6056H27.6133V1.50793H33.7792C34.5152 1.49256 35.2469 1.62309 35.9322 1.892C36.6175 2.1609 37.2427 2.56286 37.7718 3.07467C38.3063 3.55541 38.7316 4.14498 39.0193 4.80377C39.307 5.46255 39.4503 6.17528 39.4397 6.89406C39.455 7.61668 39.3138 8.33406 39.026 8.99704C38.7381 9.66002 38.3103 10.2529 37.7718 10.7351C36.6936 11.7632 35.3628 12.2768 33.7792 12.2759H29.9381V12.2773ZM29.9381 3.73602V10.0535H33.8369C34.2644 10.0662 34.6897 9.98952 35.0858 9.8284C35.4819 9.66728 35.84 9.42526 36.1372 9.11782C36.4329 8.83037 36.6679 8.48656 36.8284 8.10671C36.9889 7.72686 37.0715 7.31869 37.0715 6.90633C37.0715 6.49397 36.9889 6.0858 36.8284 5.70595C36.6679 5.3261 36.4329 4.98229 36.1372 4.69484C35.8437 4.38093 35.4869 4.13298 35.0903 3.96743C34.6937 3.80188 34.2665 3.72251 33.8369 3.73458H29.9381V3.73602Z" fill="#5F6368"/>
<path d="M44.7969 6.81897C46.5153 6.81897 47.8717 7.27816 48.8661 8.19655C49.8605 9.11493 50.3573 10.3741 50.3563 11.9741V19.6056H48.1326V17.8872H48.0315C47.0688 19.3024 45.7885 20.0099 44.1904 20.0099C42.8263 20.0099 41.6851 19.6056 40.7667 18.797C40.326 18.4258 39.9736 17.961 39.7353 17.4364C39.497 16.9118 39.3787 16.3407 39.3891 15.7646C39.3891 14.4832 39.8733 13.4643 40.8418 12.7076C41.8102 11.951 43.1031 11.5717 44.7204 11.5697C46.1008 11.5697 47.2378 11.8224 48.1311 12.3278V11.7964C48.1337 11.4037 48.0489 11.0153 47.8828 10.6594C47.7168 10.3035 47.4735 9.989 47.1708 9.73874C46.5561 9.18407 45.7548 8.88142 44.9269 8.89111C43.6282 8.89111 42.6006 9.43887 41.8439 10.5344L39.7963 9.24489C40.9227 7.62761 42.5895 6.81897 44.7969 6.81897ZM41.7891 15.8151C41.7875 16.111 41.8567 16.4029 41.9908 16.6667C42.1249 16.9304 42.3201 17.1583 42.5601 17.3313C43.0743 17.7358 43.7125 17.95 44.3666 17.9378C45.3476 17.9361 46.288 17.5457 46.9817 16.8519C47.7518 16.127 48.1369 15.2765 48.1369 14.3003C47.412 13.7227 46.4012 13.4339 45.1045 13.4339C44.1601 13.4339 43.3726 13.6616 42.7421 14.117C42.1053 14.579 41.7891 15.1408 41.7891 15.8151Z" fill="#5F6368"/>
<path d="M63.1213 7.22327L55.3584 25.0639H52.9584L55.8392 18.8215L50.7347 7.22327H53.2617L56.9511 16.1183H57.0016L60.59 7.22327H63.1213Z" fill="#5F6368"/>
<path d="M20.5435 10.6976C20.5443 9.98914 20.4844 9.28187 20.3644 8.58362H10.5596V12.5878H16.1754C16.0604 13.2274 15.8172 13.837 15.4603 14.38C15.1035 14.923 14.6403 15.3881 14.0989 15.7473V18.3465H17.4504C19.4128 16.5372 20.5435 13.8614 20.5435 10.6976Z" fill="#4285F4"/>
<path d="M10.5596 20.8575C13.3653 20.8575 15.7277 19.9363 17.4504 18.3479L14.0989 15.7487C13.1661 16.3811 11.9647 16.7421 10.5596 16.7421C7.84781 16.7421 5.54607 14.914 4.72299 12.4506H1.27039V15.1292C2.13573 16.8511 3.46264 18.2987 5.10297 19.3102C6.7433 20.3217 8.6325 20.8575 10.5596 20.8575Z" fill="#34A853"/>
<path d="M4.72301 12.4507C4.28788 11.1598 4.28788 9.76186 4.72301 8.47098V5.79236H1.27041C0.542449 7.24091 0.16333 8.83963 0.16333 10.4608C0.16333 12.082 0.542449 13.6807 1.27041 15.1293L4.72301 12.4507Z" fill="#FBBC04"/>
<path d="M10.5596 4.17932C12.0423 4.1551 13.475 4.7153 14.548 5.73884L17.5154 2.77142C15.6337 1.00407 13.141 0.0337652 10.5596 0.0639146C8.6325 0.0640024 6.7433 0.599718 5.10297 1.61125C3.46264 2.62279 2.13573 4.07033 1.27039 5.79227L4.72299 8.47089C5.54607 6.00743 7.84781 4.17932 10.5596 4.17932Z" fill="#EA4335"/>
</g>
<defs>
<clipPath id="clip0_1_752">
<rect width="62.9541" height="25" fill="white" transform="translate(0.162842 0.0639648)"/>
</clipPath>
</defs>
</svg>
