<svg width="64" height="65" viewBox="0 0 64 65" fill="none" xmlns="http://www.w3.org/2000/svg">
<g clip-path="url(#clip0_1_619)">
<path d="M60.4444 52.4499C59.7031 50.7379 58.8516 48.8801 56.8889 48.8801H55.1111C57.0738 48.8801 58.6667 47.2819 58.6667 45.3103V14.9601C58.6676 14.4922 58.5764 14.0288 58.3982 13.5962C58.22 13.1636 57.9584 12.7703 57.6282 12.4388C57.298 12.1073 56.9058 11.8441 56.4739 11.6642C56.0421 11.4843 55.579 11.3913 55.1111 11.3903H8.88889C6.92622 11.3903 5.33333 12.9885 5.33333 14.9601V45.3103C5.33333 47.2819 6.92622 48.8801 8.88889 48.8801H7.11111C5.14844 48.8801 4.14756 50.665 3.55556 52.4499L0 61.1521C0 63.1254 1.59289 64.7237 3.55556 64.7237H60.4444C62.4071 64.7237 64 63.1254 64 61.1539L60.4444 52.4499Z" fill="#CCD6DD"/>
<path d="M0.0142212 61.3014L0.0248879 61.4027L0.32711 62.6329C0.607714 63.2546 1.06137 63.7823 1.63387 64.1531C2.20637 64.5238 2.8735 64.7219 3.55555 64.7236H60.4444C61.3623 64.7206 62.2435 64.3627 62.9035 63.7249C63.5636 63.087 63.9514 62.2186 63.9858 61.3014H0.0142212Z" fill="#9AAAB4"/>
<path d="M55.1111 43.5236C55.1111 44.5103 54.3165 45.3085 53.3334 45.3085H10.6667C9.68536 45.3085 8.88892 44.5103 8.88892 43.5236V16.7467C8.88892 15.7601 9.68536 14.9619 10.6667 14.9619H53.3334C54.3165 14.9619 55.1111 15.7619 55.1111 16.7467V43.5236Z" fill="#5DADEC"/>
<path d="M58.4996 55.9094L57.1485 52.0427C56.7236 51.225 56.0196 50.5547 55.0365 50.5547H9.08445C8.10312 50.5547 7.47379 51.2801 7.02934 52.3965L5.80623 55.9112C5.4169 56.9707 6.60268 57.6961 7.58401 57.6961H21.056C21.056 57.6961 22.7218 57.6125 23.0169 56.6152C23.3582 55.4632 23.7547 53.7281 23.84 53.4223C23.9716 52.953 24.5298 52.4783 25.3618 52.4783H40.6116C41.5005 52.4783 41.9378 52.9281 42.0533 53.4845C42.128 53.8472 42.608 55.513 42.832 56.6525C43.0293 57.6676 45.0027 57.6943 45.0027 57.6943H56.7253C57.7049 57.6943 58.8889 56.857 58.4996 55.9094Z" fill="#AEBBC1"/>
<path d="M39.7778 59.5912H25.9449C25.2782 59.5912 24.9885 58.9814 25.0845 58.3912C25.1805 57.8027 25.7227 55.2036 25.7654 54.9014C25.8062 54.5974 26.2525 54.2347 26.6969 54.2347H39.168C39.696 54.2347 40.0391 54.5245 40.1458 55.1041C40.2507 55.6854 40.6827 58.0214 40.7165 58.5547C40.7502 59.0898 40.416 59.5912 39.7778 59.5912Z" fill="#9AAAB4"/>
</g>
<defs>
<clipPath id="clip0_1_619">
<rect width="64" height="64" fill="white" transform="translate(0 0.723633)"/>
</clipPath>
</defs>
</svg>
