<svg width="94" height="26" viewBox="0 0 94 26" fill="none" xmlns="http://www.w3.org/2000/svg">
<g clip-path="url(#clip0_1_731)">
<path d="M35.0083 5.17688H29.8273C29.4727 5.17688 29.1712 5.43446 29.1159 5.78446L27.0205 19.0701C26.9788 19.3322 27.1818 19.5685 27.4477 19.5685H29.9212C30.2758 19.5685 30.5773 19.311 30.6326 18.9602L31.1977 15.3769C31.2523 15.0261 31.5545 14.7685 31.9083 14.7685H33.5485C36.9614 14.7685 38.9311 13.117 39.4455 9.8443C39.6773 8.41249 39.4553 7.28749 38.7848 6.49961C38.0485 5.63446 36.7424 5.17688 35.0083 5.17688ZM35.6061 10.0292C35.3227 11.8882 33.9023 11.8882 32.5288 11.8882H31.747L32.2955 8.41627C32.328 8.20643 32.5098 8.05188 32.722 8.05188H33.0803C34.0159 8.05188 34.8985 8.05188 35.3545 8.58521C35.6265 8.9034 35.7098 9.37612 35.6061 10.0292Z" fill="#253B80"/>
<path d="M50.4954 9.96929H48.0144C47.803 9.96929 47.6204 10.1238 47.5879 10.3337L47.478 11.0276L47.3045 10.7761C46.7674 9.99657 45.5697 9.73596 44.3742 9.73596C41.6326 9.73596 39.2909 11.8125 38.8348 14.7254C38.5977 16.1784 38.9348 17.5678 39.7591 18.5367C40.5151 19.4276 41.597 19.7988 42.8841 19.7988C45.0932 19.7988 46.3182 18.3784 46.3182 18.3784L46.2076 19.0678C46.1659 19.3314 46.3689 19.5678 46.6333 19.5678H48.8682C49.2235 19.5678 49.5235 19.3102 49.5795 18.9594L50.9204 10.4678C50.9629 10.2064 50.7606 9.96929 50.4954 9.96929ZM47.0371 14.7981C46.7977 16.2155 45.6727 17.167 44.2379 17.167C43.5174 17.167 42.9417 16.936 42.572 16.4981C42.2053 16.0632 42.0659 15.4443 42.1826 14.7549C42.4061 13.3496 43.55 12.367 44.9629 12.367C45.6674 12.367 46.2401 12.6011 46.6174 13.0428C46.9954 13.489 47.1454 14.1117 47.0371 14.7981Z" fill="#253B80"/>
<path d="M63.7091 9.96924H61.2159C60.978 9.96924 60.7546 10.0874 60.6197 10.2851L57.1811 15.3503L55.7235 10.4829C55.6318 10.1783 55.3508 9.96924 55.0326 9.96924H52.5826C52.2849 9.96924 52.078 10.2601 52.1727 10.5405L54.9189 18.5995L52.3371 22.2442C52.1341 22.5314 52.3386 22.9261 52.6894 22.9261H55.1796C55.4159 22.9261 55.6371 22.8109 55.7712 22.617L64.0636 10.6473C64.2621 10.3609 64.0583 9.96924 63.7091 9.96924Z" fill="#253B80"/>
<path d="M71.9637 5.17688H66.7818C66.4281 5.17688 66.1265 5.43446 66.0712 5.78446L63.9758 19.0701C63.9341 19.3322 64.1371 19.5685 64.4015 19.5685H67.0606C67.3076 19.5685 67.519 19.3882 67.5576 19.1428L68.1523 15.3769C68.2068 15.0261 68.5091 14.7685 68.8629 14.7685H70.5023C73.9159 14.7685 75.8849 13.117 76.4 9.8443C76.6326 8.41249 76.4091 7.28749 75.7387 6.49961C75.003 5.63446 73.6977 5.17688 71.9637 5.17688ZM72.5614 10.0292C72.2788 11.8882 70.8584 11.8882 69.4841 11.8882H68.7031L69.2523 8.41627C69.2849 8.20643 69.4652 8.05188 69.678 8.05188H70.0364C70.9712 8.05188 71.8546 8.05188 72.3106 8.58521C72.5826 8.9034 72.6652 9.37612 72.5614 10.0292Z" fill="#179BD7"/>
<path d="M87.45 9.96929H84.9704C84.7575 9.96929 84.5765 10.1238 84.5447 10.3337L84.4348 11.0276L84.2606 10.7761C83.7235 9.99657 82.5265 9.73596 81.331 9.73596C78.5894 9.73596 76.2485 11.8125 75.7924 14.7254C75.556 16.1784 75.8916 17.5678 76.7159 18.5367C77.4735 19.4276 78.5538 19.7988 79.8409 19.7988C82.05 19.7988 83.275 18.3784 83.275 18.3784L83.1644 19.0678C83.1227 19.3314 83.3257 19.5678 83.5916 19.5678H85.8257C86.1795 19.5678 86.481 19.3102 86.5363 18.9594L87.878 10.4678C87.9189 10.2064 87.7159 9.96929 87.45 9.96929ZM83.9916 14.7981C83.7538 16.2155 82.6272 17.167 81.1924 17.167C80.4735 17.167 79.8962 16.936 79.5265 16.4981C79.1598 16.0632 79.0219 15.4443 79.1371 14.7549C79.3621 13.3496 80.5045 12.367 81.9174 12.367C82.6219 12.367 83.1947 12.6011 83.5719 13.0428C83.9515 13.489 84.1015 14.1117 83.9916 14.7981Z" fill="#179BD7"/>
<path d="M90.375 5.54118L88.2485 19.07C88.2068 19.3321 88.4098 19.5685 88.6742 19.5685H90.8121C91.1674 19.5685 91.4689 19.3109 91.5235 18.9601L93.6205 5.67527C93.6621 5.41315 93.4591 5.17603 93.1947 5.17603H90.8008C90.5894 5.17678 90.4076 5.33133 90.375 5.54118Z" fill="#179BD7"/>
<path d="M5.50453 22.1503L5.90074 19.6337L5.01817 19.6132H0.803772L3.73256 1.04275C3.74165 0.986691 3.7712 0.934419 3.81438 0.897297C3.85756 0.860176 3.91286 0.839722 3.97044 0.839722H11.0765C13.4356 0.839722 15.0636 1.33063 15.9136 2.29957C16.3121 2.75412 16.5659 3.22912 16.6886 3.75184C16.8174 4.30033 16.8197 4.95563 16.6939 5.75487L16.6848 5.81321V6.32533L17.0833 6.55108C17.4189 6.72912 17.6856 6.9329 17.8901 7.16624C18.231 7.55487 18.4515 8.04881 18.5447 8.63442C18.6409 9.23669 18.6091 9.95336 18.4515 10.7647C18.2697 11.6981 17.9757 12.5109 17.5788 13.1761C17.2136 13.789 16.7485 14.2973 16.1962 14.6912C15.6689 15.0655 15.0424 15.3496 14.3341 15.5314C13.6477 15.7102 12.8651 15.8003 12.0068 15.8003H11.4538C11.0583 15.8003 10.6742 15.9428 10.3727 16.1981C10.0704 16.4587 9.87044 16.8147 9.80907 17.2041L9.76741 17.4306L9.06741 21.8662L9.03559 22.0291C9.02726 22.0806 9.01286 22.1064 8.99165 22.1238C8.97271 22.1397 8.94544 22.1503 8.91892 22.1503H5.50453Z" fill="#253B80"/>
<path d="M17.4606 5.87231C17.4394 6.00792 17.4151 6.14656 17.3879 6.28898C16.4507 11.1003 13.2447 12.7625 9.14998 12.7625H7.06513C6.56437 12.7625 6.1424 13.1261 6.06437 13.62L4.99695 20.3897L4.69468 22.3087C4.64392 22.6329 4.89392 22.9253 5.22119 22.9253H8.91892C9.3568 22.9253 9.72877 22.6072 9.79771 22.1753L9.83407 21.9875L10.5303 17.5693L10.575 17.3269C10.6432 16.8935 11.0159 16.5753 11.4538 16.5753H12.0068C15.5894 16.5753 18.3939 15.1208 19.2136 10.9117C19.556 9.15337 19.3788 7.68519 18.4727 6.65262C18.1985 6.34125 17.8583 6.08292 17.4606 5.87231Z" fill="#179BD7"/>
<path d="M16.4803 5.48138C16.3371 5.43972 16.1894 5.40184 16.0379 5.36775C15.8856 5.33441 15.7295 5.30487 15.5689 5.27911C15.0068 5.1882 14.3909 5.14502 13.7311 5.14502H8.16136C8.02424 5.14502 7.89394 5.17608 7.77727 5.23214C7.52045 5.35563 7.32954 5.59881 7.28333 5.89653L6.09848 13.4011L6.06439 13.62C6.14242 13.1261 6.56439 12.7624 7.06515 12.7624H9.15C13.2447 12.7624 16.4508 11.0996 17.3879 6.28896C17.4159 6.14653 17.4394 6.0079 17.4606 5.87229C17.2235 5.74653 16.9667 5.63896 16.6901 5.54729C16.622 5.52457 16.5515 5.5026 16.4803 5.48138Z" fill="#222D65"/>
<path d="M7.28332 5.89654C7.32954 5.59881 7.52044 5.35563 7.77726 5.2329C7.89469 5.17684 8.02423 5.14578 8.16135 5.14578H13.7311C14.3909 5.14578 15.0068 5.18897 15.5689 5.27987C15.7295 5.30563 15.8856 5.33518 16.0379 5.36851C16.1894 5.4026 16.3371 5.44048 16.4803 5.48215C16.5515 5.50336 16.622 5.52533 16.6909 5.5473C16.9674 5.63897 17.2242 5.7473 17.4614 5.8723C17.7401 4.09427 17.4591 2.88366 16.4977 1.78745C15.4379 0.580632 13.525 0.0639648 11.0773 0.0639648H3.9712C3.4712 0.0639648 3.04469 0.427601 2.96742 0.922298L0.00756729 19.6837C-0.050766 20.0549 0.235598 20.3897 0.60984 20.3897H4.99696L6.09848 13.4011L7.28332 5.89654Z" fill="#253B80"/>
</g>
<defs>
<clipPath id="clip0_1_731">
<rect width="93.9394" height="25" fill="white" transform="translate(0 0.0639648)"/>
</clipPath>
</defs>
</svg>
