<svg width="24" height="24" viewBox="0 0 24 24" fill="none" xmlns="http://www.w3.org/2000/svg">
<path d="M10 20H6V22H4V20H3C2.73478 20 2.48043 19.8946 2.29289 19.7071C2.10536 19.5196 2 19.2652 2 19V3.99998C2 3.73476 2.10536 3.48041 2.29289 3.29287C2.48043 3.10534 2.73478 2.99998 3 2.99998H10V1.58998C10 1.5174 10.0159 1.4457 10.0464 1.37985C10.0769 1.31401 10.1214 1.2556 10.1768 1.20869C10.2322 1.16178 10.2971 1.12749 10.3671 1.10819C10.4371 1.0889 10.5104 1.08508 10.582 1.09698L21.164 2.86098C21.3975 2.8998 21.6097 3.02019 21.7627 3.20074C21.9158 3.38128 21.9999 3.61027 22 3.84698V5.99998H23V7.99998H22V15H23V17H22V19.153C21.9999 19.3897 21.9158 19.6187 21.7627 19.7992C21.6097 19.9798 21.3975 20.1002 21.164 20.139L20 20.333V22H18V20.667L10.582 21.903C10.5104 21.9149 10.4371 21.9111 10.3671 21.8918C10.2971 21.8725 10.2322 21.8382 10.1768 21.7913C10.1214 21.7444 10.0769 21.6859 10.0464 21.6201C10.0159 21.5543 10 21.4826 10 21.41V20ZM12 19.64L20 18.306V4.69398L12 3.36098V19.639V19.64ZM16.5 14C15.672 14 15 12.88 15 11.5C15 10.12 15.672 8.99998 16.5 8.99998C17.328 8.99998 18 10.12 18 11.5C18 12.88 17.328 14 16.5 14Z" fill="#5BB5A2"/>
</svg>
