<svg width="107" height="31" viewBox="0 0 107 31" fill="none" xmlns="http://www.w3.org/2000/svg">
<g clip-path="url(#clip0_1_702)">
<path d="M23.2052 6.24597C23.1848 6.09695 23.0546 6.01428 22.9465 6.00528C22.8393 5.99628 20.7386 5.96436 20.7386 5.96436C20.7386 5.96436 18.9818 4.25827 18.8082 4.08471C18.6347 3.91116 18.2958 3.96355 18.164 4.00285C18.1623 4.00367 17.834 4.10518 17.2815 4.27628C17.189 3.97665 17.053 3.60825 16.859 3.23822C16.2336 2.04462 15.3175 1.41343 14.2106 1.4118C14.209 1.4118 14.2082 1.4118 14.2066 1.4118C14.1296 1.4118 14.0535 1.41917 13.9765 1.42571C13.9438 1.38642 13.911 1.34794 13.8767 1.31028C13.3944 0.79453 12.7764 0.543202 12.0355 0.565306C10.6061 0.606238 9.18249 1.63856 8.02818 3.47236C7.21607 4.76256 6.59797 6.38352 6.42279 7.63851C4.78137 8.14688 3.63361 8.50216 3.60823 8.51037C2.77975 8.77069 2.75356 8.79606 2.64549 9.5771C2.56527 10.1673 0.397461 26.9302 0.397461 26.9302L18.5643 30.0722L26.4381 28.1147C26.4381 28.1147 23.2257 6.39498 23.2052 6.24597ZM16.3719 4.55789C15.9536 4.68724 15.4779 4.8346 14.9622 4.99424C14.9515 4.27055 14.8656 3.2636 14.5283 2.39336C15.613 2.59885 16.1468 3.82602 16.3719 4.55789ZM14.0117 5.28896C13.0596 5.58365 12.0207 5.90539 10.9786 6.22796C11.2717 5.10558 11.8276 3.98811 12.5103 3.25541C12.7641 2.9828 13.1194 2.67908 13.5402 2.50552C13.9356 3.33073 14.0215 4.49895 14.0117 5.28896ZM12.0641 1.51658C12.3998 1.50922 12.6822 1.5829 12.9237 1.74172C12.5373 1.94229 12.164 2.23045 11.8136 2.60622C10.9057 3.58042 10.2099 5.09248 9.93235 6.55133C9.06702 6.81901 8.22053 7.08183 7.44117 7.32252C7.93321 5.02617 9.85784 1.58044 12.0641 1.51658Z" fill="#95BF47"/>
<path d="M22.9473 6.00611C22.8401 5.99711 20.7394 5.96519 20.7394 5.96519C20.7394 5.96519 18.9826 4.2591 18.809 4.08554C18.7444 4.02087 18.6568 3.9873 18.5651 3.97339L18.5659 30.0714L26.4389 28.1148C26.4389 28.1148 23.2265 6.39581 23.2061 6.2468C23.1856 6.09778 23.0546 6.01511 22.9473 6.00611Z" fill="#5E8E3E"/>
<path d="M14.2008 10.0544L13.2864 13.4755C13.2864 13.4755 12.2664 13.0114 11.0572 13.0875C9.28398 13.1997 9.26514 14.318 9.28319 14.5988C9.37978 16.1288 13.4051 16.4629 13.6311 20.0469C13.8087 22.8664 12.1354 24.7951 9.72444 24.9474C6.83047 25.13 5.23737 23.4231 5.23737 23.4231L5.85055 20.8148C5.85055 20.8148 7.45427 22.0248 8.73793 21.9438C9.57626 21.8905 9.87586 21.2086 9.84557 20.7264C9.71952 18.7305 6.4416 18.8484 6.2345 15.5689C6.06011 12.8092 7.87265 10.0127 11.8717 9.76052C13.4125 9.66147 14.2008 10.0544 14.2008 10.0544Z" fill="white"/>
<path d="M36.8067 17.2182C35.9014 16.727 35.4361 16.3129 35.4361 15.7437C35.4361 15.0194 36.0824 14.5541 37.0917 14.5541C38.2667 14.5541 39.3157 15.0453 39.3157 15.0453L40.1431 12.5103C40.1431 12.5103 39.3823 11.9152 37.1429 11.9152C34.0265 11.9152 31.8666 13.6999 31.8666 16.2089C31.8666 17.6315 32.8751 18.7179 34.2205 19.4934C35.307 20.1137 35.6951 20.5538 35.6951 21.2002C35.6951 21.8725 35.1519 22.4157 34.1434 22.4157C32.6404 22.4157 31.2211 21.6394 31.2211 21.6394L30.3417 24.1744C30.3417 24.1744 31.6531 25.0538 33.8592 25.0538C37.0666 25.0538 39.3685 23.4761 39.3685 20.6309C39.3677 19.1061 38.2041 18.0196 36.8067 17.2182Z" fill="black"/>
<path d="M49.5842 11.89C48.0064 11.89 46.7649 12.6403 45.8084 13.7779L45.7564 13.7519L47.127 6.58777H43.5575L40.092 24.8216H43.6614L44.851 18.5889C45.3163 16.2349 46.5318 14.7872 47.6702 14.7872C48.4716 14.7872 48.7826 15.3304 48.7826 16.1066C48.7826 16.5979 48.7307 17.1931 48.6275 17.6843L47.2829 24.8225H50.8525L52.2488 17.4513C52.4042 16.675 52.508 15.7445 52.508 15.1233C52.5065 13.1055 51.4461 11.89 49.5842 11.89Z" fill="black"/>
<path d="M60.576 11.89C56.2821 11.89 53.438 15.7697 53.438 20.0886C53.438 22.8558 55.1445 25.0799 58.3521 25.0799C62.5678 25.0799 65.4129 21.3042 65.4129 16.8813C65.4129 14.3211 63.9124 11.89 60.576 11.89ZM58.8173 22.3394C57.6016 22.3394 57.0842 21.3049 57.0842 20.0115C57.0842 17.9685 58.145 14.6321 60.0847 14.6321C61.3521 14.6321 61.7652 15.7185 61.7652 16.779C61.7652 18.977 60.7059 22.3394 58.8173 22.3394Z" fill="black"/>
<path d="M74.5427 11.89C72.1334 11.89 70.7662 14.0109 70.7662 14.0109H70.715L70.9221 12.0971H67.7667C67.6118 13.3906 67.3265 15.3556 67.0427 16.8301L64.5596 29.8908H68.1291L69.1113 24.6146H69.1895C69.1895 24.6146 69.9218 25.0799 71.2845 25.0799C75.4742 25.0799 78.2155 20.7869 78.2155 16.4412C78.2155 14.0369 77.1547 11.89 74.5427 11.89ZM71.1287 22.3906C70.2021 22.3906 69.6537 21.8733 69.6537 21.8733L70.2488 18.5369C70.6629 16.3129 71.8265 14.8383 73.0683 14.8383C74.1547 14.8383 74.4906 15.8468 74.4906 16.8042C74.4906 19.1061 73.12 22.3906 71.1287 22.3906Z" fill="black"/>
<path d="M83.3106 6.7688C82.173 6.7688 81.2676 7.67416 81.2676 8.83772C81.2676 9.89819 81.9399 10.6225 82.9486 10.6225H83.0003C84.1127 10.6225 85.0693 9.87218 85.0953 8.55355C85.0953 7.51904 84.397 6.7688 83.3106 6.7688Z" fill="black"/>
<path d="M78.3192 24.8217H81.8877L84.3197 12.175H80.7241L78.3192 24.8217Z" fill="black"/>
<path d="M93.398 12.149H90.9149L91.0437 11.5539C91.2508 10.3383 91.9752 9.25189 93.1649 9.25189C93.7998 9.25189 94.3024 9.43297 94.3024 9.43297L95.0008 6.63977C95.0008 6.63977 94.3801 6.32959 93.0606 6.32959C91.7932 6.32959 90.5268 6.6917 89.5693 7.51911C88.3535 8.55362 87.7845 10.0533 87.5003 11.5539L87.3975 12.149H85.7416L85.2242 14.8392H86.8801L84.9921 24.8225H88.5616L90.4496 14.8392H92.9067L93.398 12.149Z" fill="black"/>
<path d="M101.984 12.175C101.984 12.175 99.7531 17.7963 98.7513 20.8648H98.6991C98.6313 19.8767 97.8198 12.175 97.8198 12.175H94.0693L96.217 23.7871C96.2691 24.0454 96.2431 24.2013 96.1393 24.3823C95.7247 25.1838 95.0268 25.96 94.1991 26.5292C93.5268 27.0205 92.7768 27.3306 92.1823 27.5377L93.1649 30.5639C93.8893 30.4089 95.3888 29.8137 96.6562 28.6241C98.286 27.0984 99.7855 24.7445 101.337 21.5371L105.708 12.1742H101.984V12.175Z" fill="black"/>
</g>
<defs>
<clipPath id="clip0_1_702">
<rect width="105.738" height="30" fill="white" transform="translate(0.397461 0.563965)"/>
</clipPath>
</defs>
</svg>
