<svg width="63" height="21" viewBox="0 0 63 21" fill="none" xmlns="http://www.w3.org/2000/svg">
<g clip-path="url(#clip0_1_749)">
<path d="M40.6764 0.594727C36.3071 0.594727 32.4024 2.85945 32.4024 7.04369C32.4024 11.8422 39.3275 12.1737 39.3275 14.5843C39.3275 15.5993 38.1643 16.5079 36.1775 16.5079C33.358 16.5079 31.2506 15.2383 31.2506 15.2383L30.3489 19.4607C30.3489 19.4607 32.7766 20.5331 35.9996 20.5331C40.7767 20.5331 44.5357 18.1572 44.5357 13.9014C44.5357 8.8309 37.5818 8.50932 37.5818 6.27183C37.5818 5.47671 38.5367 4.60549 40.5177 4.60549C42.7529 4.60549 44.5766 5.52883 44.5766 5.52883L45.459 1.45074C45.459 1.45074 43.4748 0.594727 40.6764 0.594727ZM0.701014 0.902507L0.595215 1.51807C0.595215 1.51807 2.43341 1.85449 4.089 2.52557C6.22072 3.2951 6.37257 3.74308 6.73159 5.13449L10.6438 20.2157H15.8881L23.9673 0.902507H18.735L13.5436 14.0337L11.4252 2.90308C11.231 1.62919 10.2469 0.902507 9.04235 0.902507H0.701014ZM26.0713 0.902507L21.9667 20.2157H26.9561L31.0463 0.902507H26.0713ZM53.899 0.902507C52.6958 0.902507 52.0584 1.54664 51.5906 2.67224L44.2808 20.2157H49.5131L50.5254 17.2918H56.8998L57.5154 20.2157H62.1321L58.1045 0.902507H53.899ZM54.5794 6.12035L56.1304 13.3676H51.9753L54.5794 6.12035Z" fill="#1434CB"/>
</g>
<defs>
<clipPath id="clip0_1_749">
<rect width="61.5984" height="20" fill="white" transform="translate(0.564392 0.563965)"/>
</clipPath>
</defs>
</svg>
