<svg width="100" height="26" viewBox="0 0 100 26" fill="none" xmlns="http://www.w3.org/2000/svg">
<g clip-path="url(#clip0_1_699)">
<path d="M32.0954 9.84016C32.0954 8.05708 30.3615 6.16332 27.361 6.16332C23.9916 6.16332 20.2902 8.63504 19.7245 13.5662C19.1466 18.5465 22.2455 20.76 25.3689 20.76C28.4924 20.76 30.1279 19.5426 31.8003 17.9193C30.3615 16.1117 28.5047 16.9479 28.1481 17.1323C27.7546 17.3291 27.2504 17.5996 26.2174 17.5996C25.0123 17.5996 23.7826 17.0586 23.7826 14.8082C31.5052 14.0458 32.0954 11.6232 32.0954 9.84016ZM28.271 10.1353C28.2218 10.6887 28.0005 11.6355 24.09 12.1643C24.9139 9.2376 26.4879 9.01625 27.2135 9.01625C27.8898 9.01625 28.3202 9.54503 28.271 10.1353ZM15.1869 10.6149C15.1869 10.6149 13.5268 15.8288 13.3915 16.2592C13.3424 15.8165 12.1249 6.45846 12.1249 6.45846C9.29661 6.45846 7.78406 8.47518 6.98475 10.6026C6.98475 10.6026 4.96803 15.8288 4.79587 16.2715C4.78357 15.8657 4.48844 10.6641 4.48844 10.6641C4.31628 8.05708 1.93064 6.47075 0 6.47075L2.33645 20.6493C5.30005 20.637 6.89867 18.6326 7.73488 16.5052C7.73488 16.5052 9.51795 11.8938 9.59174 11.6847C9.60403 11.8815 10.8706 20.6493 10.8706 20.6493C13.8465 20.6493 15.4452 18.7678 16.306 16.7142L20.4747 6.47075C17.5357 6.47075 15.9862 8.47518 15.1869 10.6149ZM43.0152 6.13873C41.183 6.13873 39.7811 7.1348 38.6006 8.59815V8.58585L39.6581 0.0639648C37.2233 0.0639648 35.2435 2.17907 34.8623 5.32712L33.0177 20.5386C34.4196 20.5386 35.9075 20.1328 36.7068 19.0999C37.4201 20.0222 38.4899 20.76 40.0762 20.76C44.1835 20.76 46.9995 15.9887 46.9995 11.5126C46.9749 7.42993 44.9951 6.13873 43.0152 6.13873ZM42.634 13.4555C42.2036 15.9518 40.8141 17.6488 39.4737 17.6488C38.121 17.6488 37.543 17.0463 37.543 17.0463C37.8013 14.8574 37.9611 13.517 38.453 12.3611C38.9449 11.2051 40.1131 9.36057 41.3305 9.36057C42.5234 9.36057 43.0644 10.9469 42.634 13.4555ZM57.2553 6.47075H54.3901L54.4024 6.32319C54.5991 4.45403 55.0418 3.47026 56.5052 3.3104C57.5012 3.21202 57.9439 2.69554 58.0546 2.12988C58.1407 1.68718 58.4112 0.150045 58.4112 0.150045C52.6562 0.113153 50.8485 2.59717 50.3812 6.38467L50.3689 6.47075H50.3074C49.3729 6.47075 48.3399 7.5283 48.1677 8.86869L48.1063 9.36057H50.0246L48.4137 22.666L47.9218 25.0517C47.9833 25.0517 48.0571 25.064 48.1185 25.064C50.8116 24.9656 52.5332 22.8382 52.9144 19.7516L54.1687 9.36057H55.0664C55.9518 9.36057 56.9848 8.47518 57.1692 6.99953L57.2553 6.47075ZM72.1594 6.22481C68.8515 6.22481 65.728 8.65964 64.7688 12.484C63.8096 16.3084 65.2607 20.8338 70.1303 20.8338C74.9877 20.8338 77.7914 16.124 77.7914 12.2012C77.7914 8.30302 75.1476 6.22481 72.1594 6.22481ZM73.4998 13.3325C73.3276 15.0664 72.5652 17.698 70.4747 17.698C68.3719 17.698 68.667 14.6237 68.876 13.1604C69.0974 11.5986 69.9705 9.37287 71.8519 9.37287C73.5366 9.37287 73.6965 11.3773 73.4998 13.3325ZM94.1343 10.6149C94.1343 10.6149 92.4742 15.8288 92.3389 16.2592C92.2897 15.8165 91.0723 6.45846 91.0723 6.45846C88.244 6.45846 86.7314 8.47518 85.9321 10.6026C85.9321 10.6026 83.9154 15.8288 83.7432 16.2715C83.7309 15.8657 83.4358 10.6641 83.4358 10.6641C83.2637 8.05708 80.878 6.47075 78.9474 6.47075L81.2715 20.6493C84.2351 20.637 85.8337 18.6326 86.6699 16.5052C86.6699 16.5052 88.453 11.8938 88.5145 11.6847C88.5391 11.8815 89.7934 20.6493 89.7934 20.6493C92.7693 20.6493 94.3679 18.7678 95.2287 16.7142L99.3974 6.47075C96.4707 6.47075 94.9213 8.47518 94.1343 10.6149ZM59.9607 0.150045L57.5504 19.5918L57.0585 21.9897C57.12 21.9897 57.1938 22.002 57.2553 22.002C59.85 21.9651 61.6945 19.6901 62.0389 16.8249L63.4284 5.67144C63.8465 2.26515 61.8175 0.150045 59.9607 0.150045Z" fill="#3A60F8"/>
</g>
<defs>
<clipPath id="clip0_1_699">
<rect width="99.3974" height="25" fill="white" transform="translate(0 0.0639648)"/>
</clipPath>
</defs>
</svg>
