<svg width="66" height="31" viewBox="0 0 66 31" fill="none" xmlns="http://www.w3.org/2000/svg">
<g clip-path="url(#clip0_1_715)">
<path d="M39.4408 13.6106H37.8081C37.7745 13.477 37.7495 13.322 37.7329 13.1461C37.6996 12.8037 37.6996 12.4588 37.7329 12.1164C37.7495 11.9408 37.7745 11.786 37.8081 11.6516H41.8771V24.5363C41.6734 24.5717 41.468 24.5967 41.2617 24.6112C41.0569 24.6269 40.8515 24.6352 40.646 24.6361C40.4492 24.6348 40.2525 24.6265 40.0562 24.6112C39.85 24.5966 39.6448 24.5714 39.4412 24.5359V13.6101V13.6104L39.4408 13.6106ZM53.6059 16.8509C53.6059 16.3819 53.543 15.9341 53.4178 15.5068C53.292 15.0801 53.1073 14.7077 52.8652 14.3893C52.6219 14.0715 52.3123 13.8159 51.9356 13.6235C51.5589 13.4309 51.1109 13.3345 50.5919 13.3345C49.5705 13.3345 48.7877 13.6447 48.2436 14.2639C47.6994 14.8833 47.3689 15.7456 47.2515 16.8509H53.606H53.6059ZM47.2265 18.7093C47.26 20.1158 47.6242 21.1457 48.3191 21.7984C49.0136 22.4513 50.0394 22.7783 51.3957 22.7783C52.5842 22.7783 53.7145 22.5687 54.7861 22.1501C54.9197 22.4013 55.0285 22.7069 55.1123 23.0669C55.1945 23.4174 55.245 23.7746 55.2629 24.1342C54.7108 24.3692 54.1033 24.5443 53.4424 24.6618C52.7805 24.7786 52.0481 24.8376 51.2449 24.8376C50.0724 24.8376 49.0676 24.6738 48.2309 24.3476C47.3935 24.0208 46.7029 23.5603 46.1587 22.9662C45.6146 22.3719 45.2167 21.6686 44.9656 20.8563C44.7146 20.0445 44.5887 19.1528 44.5887 18.1816C44.5887 17.2273 44.71 16.3355 44.9529 15.5065C45.1953 14.6782 45.5686 13.9581 46.0704 13.3469C46.5729 12.7355 47.2049 12.2501 47.9668 11.8901C48.7283 11.5301 49.6282 11.3499 50.6668 11.3499C51.5541 11.3499 52.3326 11.5008 53.0026 11.8021C53.672 12.1034 54.2331 12.5179 54.6853 13.0453C55.1373 13.5729 55.4805 14.2008 55.715 14.9288C55.9493 15.6574 56.0669 16.4484 56.0669 17.3026C56.0669 17.5371 56.058 17.7839 56.0414 18.0433C56.0276 18.2653 56.0109 18.4872 55.9913 18.7088H47.226L47.2262 18.7092L47.2265 18.7093ZM58.806 11.6516C58.9808 11.6199 59.1567 11.5948 59.3334 11.5764C59.5004 11.56 59.6766 11.5515 59.8608 11.5515C60.045 11.5515 60.2289 11.56 60.4134 11.5764C60.5974 11.5934 60.765 11.6186 60.9158 11.6516C60.9656 11.9029 61.0159 12.2339 61.0659 12.6437C61.1161 13.054 61.1416 13.4012 61.1416 13.686C61.4931 13.1169 61.9578 12.6226 62.5353 12.2039C63.113 11.7856 63.8538 11.576 64.7579 11.576C64.8918 11.576 65.0298 11.5805 65.1722 11.5888C65.2941 11.5954 65.4159 11.6077 65.5364 11.6262C65.5697 11.7771 65.5954 11.9364 65.6119 12.1036C65.6284 12.2708 65.6368 12.4468 65.6368 12.6308C65.6368 12.8319 65.6243 13.0414 65.5993 13.2586C65.5752 13.4686 65.5459 13.6779 65.5116 13.8864C65.3759 13.853 65.2366 13.8361 65.0969 13.8362H64.7576C64.3057 13.8362 63.8744 13.8991 63.4642 14.0245C63.0536 14.1502 62.6855 14.3722 62.3591 14.69C62.0329 15.0083 61.7731 15.4438 61.5809 15.9964C61.3879 16.5489 61.2919 17.2605 61.2919 18.1311V24.5359C61.0882 24.5712 60.8828 24.5965 60.6764 24.6111C60.4507 24.6278 60.2454 24.636 60.0614 24.636C59.856 24.6351 59.6507 24.6268 59.4459 24.6111C59.2314 24.5955 59.0176 24.5704 58.8053 24.536V11.6517L58.806 11.6516ZM41.1788 4.77176C41.1788 5.07238 41.1245 5.37053 41.0186 5.65185C40.7372 5.75782 40.4389 5.81214 40.1382 5.8122H40.1346C39.8339 5.81224 39.5356 5.75796 39.2542 5.65198C39.1481 5.37061 39.0937 5.07236 39.0937 4.77163V4.7677C39.0937 4.45788 39.1506 4.16115 39.2536 3.88735C39.535 3.78123 39.8334 3.72694 40.1342 3.72714H40.1376C40.4475 3.72714 40.7441 3.78399 41.0179 3.88735C41.124 4.16873 41.1783 4.46699 41.1781 4.7677V4.77163H41.1785L41.1788 4.77176ZM44.2477 4.07482H41.8142L43.5348 2.35408C43.2642 1.9741 42.932 1.64201 42.552 1.37155L40.8311 3.09229V0.658621C40.6023 0.62013 40.3707 0.600718 40.1386 0.600586H40.1342C39.8981 0.600586 39.6669 0.620761 39.4416 0.658621V3.09229L37.7203 1.37142C37.5307 1.50633 37.3528 1.6569 37.1884 1.82155L37.1876 1.82233C37.0232 1.98685 36.8728 2.16476 36.7379 2.35421L38.4591 4.07482H36.0251C36.0251 4.07482 35.9672 4.53203 35.9672 4.76836V4.77124C35.9672 5.00757 35.9872 5.23919 36.0252 5.46465H38.4593L36.7378 7.18513C37.0085 7.56506 37.3407 7.89721 37.7207 8.16792L39.4417 6.44731V8.88111C39.6667 8.91884 39.8976 8.93875 40.1334 8.93901H40.1393C40.371 8.9388 40.6024 8.91943 40.831 8.88111V6.44731L42.5521 8.16832C42.7417 8.03327 42.9197 7.88271 43.0844 7.71818H43.0848C43.2491 7.55349 43.3995 7.37546 43.5344 7.18591L41.8138 5.46478H44.2478C44.2856 5.23945 44.3055 5.00862 44.3055 4.77281V4.76679C44.3055 4.53491 44.2861 4.30369 44.2478 4.07508V4.07482H44.2477ZM0.135132 24.1848L6.91644 13.6358H0.938713C0.888669 13.3345 0.863647 12.9999 0.863647 12.6314C0.863647 12.2799 0.889062 11.953 0.939237 11.6515H10.6087L10.7344 11.9786L3.90295 22.5522H10.3072C10.3574 22.8872 10.3827 23.2301 10.3827 23.5816C10.3827 23.917 10.3575 24.235 10.3074 24.5363H0.260896L0.135132 24.1844V24.1848ZM19.7001 18.4831C19.449 18.4499 19.1308 18.4168 18.7457 18.3829C18.3606 18.3497 18.0341 18.3327 17.7666 18.3327C16.7283 18.3327 15.9371 18.5253 15.3933 18.9104C14.8488 19.2958 14.5772 19.8815 14.5772 20.6685C14.5772 21.1708 14.6689 21.5643 14.8532 21.8488C15.0371 22.1339 15.2676 22.3511 15.5439 22.5019C15.8203 22.6526 16.1255 22.7448 16.4602 22.7783C16.795 22.8117 17.1133 22.8284 17.4146 22.8284C17.7998 22.8284 18.1974 22.8074 18.6077 22.7655C19.0177 22.7239 19.3819 22.6609 19.7002 22.5772V18.4831H19.7001ZM19.7001 16.0472C19.7001 15.0589 19.449 14.3724 18.9468 13.9873C18.4443 13.6021 17.716 13.4095 16.7617 13.4095C16.1752 13.4095 15.6272 13.4559 15.1167 13.5479C14.6115 13.6386 14.1123 13.76 13.6219 13.9117C13.3036 13.3591 13.145 12.6982 13.145 11.9275C13.7136 11.7436 14.3414 11.6013 15.0282 11.5008C15.7147 11.4002 16.376 11.3499 17.0126 11.3499C18.6868 11.3499 19.9592 11.7311 20.83 12.4929C21.7004 13.2553 22.1361 14.4733 22.1361 16.1474V24.2097C21.5498 24.3436 20.8384 24.4816 20.0013 24.624C19.1549 24.767 18.2979 24.8384 17.4395 24.8376C16.6191 24.8376 15.8779 24.7625 15.2169 24.6117C14.5553 24.4607 13.9943 24.2184 13.534 23.8831C13.0731 23.5485 12.7178 23.1214 12.4663 22.6025C12.2153 22.0833 12.0897 21.4556 12.0897 20.7187C12.0897 19.9989 12.2361 19.3667 12.5292 18.8222C12.8172 18.2843 13.2255 17.8202 13.7224 17.4661C14.2247 17.1066 14.8022 16.8383 15.4553 16.6628C16.1085 16.4868 16.7947 16.3988 17.5147 16.3988C18.0505 16.3988 18.49 16.4116 18.8334 16.4368C19.1764 16.4617 19.4653 16.491 19.6998 16.5246V16.0473L19.7001 16.0472ZM27.335 22.426C27.6521 22.5432 27.9804 22.6274 28.3147 22.6773C28.6495 22.7277 29.0845 22.7528 29.6208 22.7528C30.2234 22.7528 30.7757 22.6567 31.278 22.4642C31.7805 22.272 32.2116 21.9745 32.5716 21.5724C32.9316 21.1708 33.2161 20.6646 33.4254 20.0528C33.6347 19.442 33.7396 18.7181 33.7396 17.8805C33.7396 16.5411 33.4922 15.4778 32.9986 14.6908C32.5043 13.9039 31.6964 13.5104 30.575 13.5104C30.1565 13.5104 29.7543 13.5856 29.3698 13.7365C28.9841 13.8872 28.6412 14.1133 28.3397 14.4146C28.0384 14.7159 27.7957 15.0971 27.6116 15.5575C27.4269 16.0184 27.3352 16.5662 27.3352 17.2026V22.4264V22.4262L27.335 22.426ZM24.8486 11.6513C25.0189 11.6178 25.1905 11.5928 25.3634 11.5761C25.543 11.5595 25.7232 11.5512 25.9036 11.5512C26.0705 11.5512 26.2461 11.5599 26.4307 11.5761C26.6147 11.5932 26.7905 11.6184 26.9581 11.6515C26.9746 11.6855 26.9959 11.7897 27.021 11.9656C27.0459 12.1415 27.0711 12.3298 27.0964 12.5305C27.1215 12.7316 27.1465 12.9246 27.1717 13.1082C27.1968 13.2927 27.2094 13.4099 27.2094 13.4601C27.3764 13.1925 27.5775 12.9327 27.812 12.6815C28.0465 12.4303 28.3273 12.2043 28.6537 12.0036C28.9802 11.8025 29.3483 11.6436 29.7588 11.5262C30.1688 11.4091 30.6251 11.35 31.1275 11.35C31.8808 11.35 32.5799 11.4758 33.2249 11.727C33.8691 11.9786 34.4213 12.3673 34.8821 12.8948C35.3423 13.4224 35.7022 14.0922 35.9619 14.904C36.2213 15.7168 36.351 16.6752 36.351 17.7801C36.351 19.9902 35.7523 21.7194 34.555 22.9666C33.3576 24.2141 31.6628 24.8376 29.4694 24.8376C29.1009 24.8376 28.7243 24.8124 28.3392 24.7622C27.9538 24.7118 27.6192 24.6447 27.3344 24.5614V30.4637C27.1222 30.4982 26.9087 30.5233 26.6943 30.539C26.4681 30.5554 26.2628 30.5639 26.0786 30.5639C25.8733 30.563 25.6681 30.5547 25.4634 30.539C25.2572 30.5244 25.0518 30.4993 24.8482 30.4637V11.6515L24.8486 11.6513Z" fill="#FF4A00"/>
</g>
<defs>
<clipPath id="clip0_1_715">
<rect width="65.5022" height="30" fill="white" transform="translate(0.135132 0.563965)"/>
</clipPath>
</defs>
</svg>
